<svg width="700" height="200" viewBox="0 0 700 217" fill="none" xmlns="http://www.w3.org/2000/svg">
<path d="M233.649 50.9102C233.649 49.827 233.288 49.1048 232.927 48.3827C232.566 47.6606 232.204 46.9384 231.843 46.5774C231.482 46.2163 231.121 45.8552 230.399 45.8552C230.038 45.8552 229.676 45.8552 228.954 46.2163C228.232 46.5774 227.51 46.9384 226.787 47.2995C226.065 47.6606 225.343 48.0216 224.621 48.0216C223.898 48.3827 223.537 48.3827 223.537 48.7438C221.732 49.4659 219.926 50.188 217.759 51.2712C215.954 51.9933 213.787 53.0765 211.981 53.7987C205.842 42.2446 193.564 34.3012 179.48 34.3012H146.256V26.3577C146.256 11.9151 134.339 0 119.894 0H96.4208C81.6146 0 70.0586 11.9151 70.0586 26.3577V33.9401H67.5307C56.3357 33.9401 45.1408 33.9401 33.9459 33.9401C19.5008 34.3012 9.02816 40.8003 2.88901 53.7987C1.44451 56.6872 0.722253 60.2978 0 63.5474C0 63.5474 0 63.9085 0 64.2696V170.062V170.423C0.361127 172.589 1.08338 174.755 1.80563 176.922C6.8614 191.003 19.5008 200.03 34.6682 200.03C57.7803 200.03 80.8924 200.03 104.004 200.03C105.088 200.03 105.81 200.03 106.893 200.03C111.949 198.947 115.199 194.253 113.755 189.198C112.671 185.587 109.421 183.06 104.727 183.06H35.7515C24.1955 183.06 17.3341 175.839 17.3341 164.285V102.542H98.5876C99.6709 102.542 100.754 103.626 100.754 104.709C100.754 108.319 100.754 111.93 100.754 115.541C100.754 121.318 106.532 125.29 111.949 123.484C115.561 122.401 117.727 119.151 117.727 115.18C117.727 111.93 117.727 108.319 117.727 105.07C117.727 103.987 118.811 102.904 119.894 102.904H185.619C192.48 102.904 198.258 97.1265 198.258 90.2662V87.7388C198.258 86.6556 197.175 85.5724 196.092 85.5724H19.862C18.7786 85.5724 17.6952 84.4892 17.6952 83.406C17.6952 76.9068 17.3341 70.7687 17.6952 64.6306C18.4175 57.0483 25.64 51.9933 33.2236 51.2712C33.5848 51.2712 33.9459 51.2712 34.307 51.2712C83.7814 51.2712 132.895 51.2712 182.369 51.2712C187.425 51.2712 197.175 55.2429 201.147 58.8536C200.786 59.2146 200.425 59.2146 200.064 59.2146C198.258 59.9368 196.814 60.6589 195.369 61.381C193.925 62.1032 192.842 62.4642 191.758 62.8253H191.036C189.23 62.8253 188.147 63.1864 186.702 63.1864C185.619 63.5474 184.536 64.2696 183.813 64.9917C183.091 66.0749 182.73 67.5191 182.369 69.3245C182.008 71.1298 182.008 71.4909 182.008 74.7404C182.008 77.99 182.369 76.9068 183.813 77.2679C185.619 77.2679 185.98 76.5458 187.425 76.5458C187.786 76.5458 191.036 75.4626 191.758 75.1015L203.314 71.8519C203.675 72.213 204.037 79.7953 204.037 81.6007C204.037 88.0998 203.675 94.599 202.953 101.459C202.592 108.319 201.87 115.18 200.786 122.762C200.786 123.845 200.425 125.651 200.064 128.539C199.703 131.428 198.981 134.677 198.62 138.288C197.897 141.899 197.175 146.231 196.453 150.564C195.369 154.897 194.647 159.591 193.203 163.923C192.119 168.256 190.675 172.589 189.23 176.922C187.786 180.894 186.341 184.865 184.536 188.115C182.73 191.364 180.924 193.892 179.119 196.058C177.313 198.225 174.424 198.586 172.257 198.586C170.091 198.586 167.924 197.864 166.118 196.419C164.313 194.975 162.507 192.809 160.701 190.642C158.896 188.476 157.812 185.948 156.368 183.06C155.284 180.171 154.201 178.005 153.118 175.478V171.506C153.118 170.423 153.118 168.978 153.118 167.534C153.118 166.09 153.118 164.646 152.757 163.562C152.395 162.479 152.395 161.396 152.034 160.313C152.034 159.23 151.312 158.869 150.951 158.869C149.145 158.869 147.701 159.23 146.617 159.952C145.534 160.674 144.451 161.757 143.728 162.84C143.006 164.285 142.645 165.729 142.284 167.895C141.923 170.062 141.923 172.589 141.923 175.478C141.923 179.449 142.284 183.06 143.367 186.671C144.451 190.281 145.534 193.531 147.34 196.78C149.145 200.03 150.951 202.557 153.118 205.085C155.284 207.612 157.451 209.779 159.979 211.584C162.507 213.389 164.674 214.834 166.84 215.556C169.007 216.639 171.174 217 173.341 217C174.424 217 175.869 217 176.952 216.639C178.035 216.278 179.48 215.917 180.563 215.195C181.647 214.834 182.73 214.111 183.452 213.389C184.536 212.667 185.258 211.945 185.98 211.223C188.869 207.612 191.758 203.28 194.286 197.864C196.814 192.448 198.981 186.671 201.147 180.532C202.953 174.394 204.759 167.895 206.203 161.396C207.648 154.897 208.731 148.759 209.815 142.982C210.537 137.566 211.259 132.15 211.981 126.734C212.704 121.318 213.065 116.263 213.787 111.569C214.148 106.875 214.509 103.265 214.87 100.015C215.231 96.7654 215.231 94.9601 215.231 93.8769C215.593 90.6273 215.593 87.0166 215.954 83.0449C215.954 79.4343 216.315 75.8236 216.676 72.9351C216.676 71.8519 217.398 71.1298 218.482 70.4077C219.565 69.6855 220.648 68.9634 222.093 68.2413C223.537 67.5191 224.982 66.797 226.426 65.7138C227.871 64.6306 229.676 63.9085 230.76 62.8253C232.204 61.7421 233.288 60.2978 234.01 58.8536C235.093 57.4093 235.455 55.604 235.455 53.4376C234.01 52.7155 234.01 51.9933 233.649 50.9102ZM129.644 32.1348C129.644 33.218 128.561 34.3012 127.478 34.3012H89.5594C88.476 34.3012 87.3926 33.218 87.3926 32.1348C87.3926 29.6073 87.3926 27.4409 87.3926 25.2745C87.3926 20.5807 91.0039 16.9701 95.6985 16.9701C104.727 16.9701 114.116 16.9701 123.505 16.9701C126.755 16.9701 129.283 19.1364 129.644 22.386C130.006 25.6356 129.644 28.8852 129.644 32.1348Z" fill="url(#paint0_linear_133_18)"/>
<path d="M254.234 178.408C247.17 178.408 241.098 176.961 236.019 174.068C230.969 171.146 227.073 167.085 224.329 161.883C221.614 156.653 220.257 150.589 220.257 143.693C220.257 136.767 221.614 130.704 224.329 125.503C227.073 120.272 230.969 116.21 236.019 113.317C241.098 110.395 247.17 108.934 254.234 108.934C261.297 108.934 267.354 110.395 272.404 113.317C277.483 116.21 281.38 120.272 284.095 125.503C286.838 130.704 288.21 136.767 288.21 143.693C288.21 150.589 286.838 156.653 284.095 161.883C281.38 167.085 277.483 171.146 272.404 174.068C267.354 176.961 261.297 178.408 254.234 178.408ZM254.365 162.234C256.934 162.234 259.108 161.445 260.889 159.867C262.669 158.289 264.027 156.097 264.961 153.292C265.924 150.487 266.406 147.243 266.406 143.561C266.406 139.821 265.924 136.548 264.961 133.743C264.027 130.938 262.669 128.746 260.889 127.168C259.108 125.59 256.934 124.801 254.365 124.801C251.709 124.801 249.461 125.59 247.622 127.168C245.812 128.746 244.426 130.938 243.463 133.743C242.528 136.548 242.061 139.821 242.061 143.561C242.061 147.243 242.528 150.487 243.463 153.292C244.426 156.097 245.812 158.289 247.622 159.867C249.461 161.445 251.709 162.234 254.365 162.234ZM299.178 177.137V87.3684H320.589V121.338H321.027C321.902 119.293 323.143 117.32 324.748 115.421C326.383 113.522 328.455 111.973 330.966 110.775C333.505 109.547 336.541 108.934 340.073 108.934C344.743 108.934 349.107 110.161 353.164 112.616C357.251 115.07 360.549 118.854 363.059 123.968C365.57 129.082 366.825 135.598 366.825 143.517C366.825 151.144 365.614 157.529 363.191 162.672C360.797 167.815 357.557 171.672 353.471 174.244C349.413 176.815 344.904 178.101 339.941 178.101C336.556 178.101 333.622 177.546 331.141 176.435C328.66 175.325 326.573 173.864 324.88 172.052C323.216 170.241 321.932 168.297 321.027 166.223H320.37V177.137H299.178ZM320.151 143.474C320.151 147.097 320.633 150.253 321.596 152.941C322.588 155.63 324.004 157.719 325.843 159.209C327.711 160.67 329.944 161.401 332.542 161.401C335.169 161.401 337.402 160.67 339.241 159.209C341.08 157.719 342.466 155.63 343.4 152.941C344.364 150.253 344.845 147.097 344.845 143.474C344.845 139.85 344.364 136.709 343.4 134.05C342.466 131.39 341.08 129.33 339.241 127.869C337.431 126.408 335.198 125.678 332.542 125.678C329.915 125.678 327.682 126.394 325.843 127.826C324.004 129.257 322.588 131.303 321.596 133.962C320.633 136.621 320.151 139.792 320.151 143.474ZM397.003 178.276C392.713 178.276 388.903 177.561 385.576 176.129C382.277 174.668 379.665 172.476 377.738 169.554C375.841 166.602 374.892 162.906 374.892 158.464C374.892 154.724 375.549 151.568 376.863 148.996C378.176 146.425 379.986 144.336 382.292 142.728C384.598 141.121 387.254 139.909 390.261 139.09C393.267 138.243 396.478 137.673 399.893 137.381C403.716 137.03 406.796 136.665 409.131 136.285C411.466 135.876 413.161 135.306 414.212 134.576C415.291 133.816 415.83 132.749 415.83 131.376V131.157C415.83 128.907 415.057 127.168 413.51 125.941C411.964 124.713 409.876 124.1 407.248 124.1C404.417 124.1 402.141 124.713 400.419 125.941C398.696 127.168 397.602 128.863 397.135 131.025L377.388 130.324C377.972 126.233 379.475 122.58 381.898 119.366C384.35 116.122 387.707 113.58 391.968 111.739C396.259 109.869 401.411 108.934 407.425 108.934C411.715 108.934 415.671 109.445 419.29 110.468C422.909 111.461 426.061 112.923 428.748 114.851C431.432 116.75 433.505 119.088 434.964 121.864C436.454 124.64 437.196 127.811 437.196 131.376V177.137H417.058V167.757H416.531C415.334 170.036 413.803 171.964 411.933 173.543C410.094 175.12 407.921 176.304 405.409 177.093C402.93 177.882 400.127 178.276 397.003 178.276ZM403.616 164.25C405.92 164.25 407.993 163.782 409.832 162.847C411.7 161.912 413.189 160.626 414.299 158.99C415.409 157.325 415.961 155.396 415.961 153.204V146.805C415.35 147.126 414.605 147.419 413.729 147.682C412.884 147.944 411.949 148.193 410.926 148.427C409.904 148.66 408.853 148.865 407.775 149.04C406.693 149.216 405.658 149.376 404.667 149.523C402.653 149.844 400.929 150.341 399.499 151.013C398.098 151.685 397.018 152.562 396.259 153.643C395.529 154.695 395.164 155.951 395.164 157.412C395.164 159.633 395.953 161.328 397.529 162.497C399.134 163.666 401.163 164.25 403.616 164.25ZM474.853 178.101C469.891 178.101 465.38 176.815 461.324 174.244C457.265 171.672 454.026 167.815 451.602 162.672C449.179 157.529 447.969 151.144 447.969 143.517C447.969 135.598 449.223 129.082 451.735 123.968C454.245 118.854 457.527 115.07 461.586 112.616C465.673 110.161 470.065 108.934 474.763 108.934C478.295 108.934 481.319 109.547 483.828 110.775C486.338 111.973 488.411 113.522 490.044 115.421C491.681 117.32 492.921 119.293 493.766 121.338H494.206V87.3684H515.616V177.137H494.424V166.223H493.766C492.862 168.297 491.578 170.241 489.913 172.052C488.249 173.864 486.163 175.325 483.654 176.435C481.172 177.546 478.239 178.101 474.853 178.101ZM482.295 161.401C484.894 161.401 487.111 160.67 488.95 159.209C490.789 157.719 492.205 155.63 493.199 152.941C494.19 150.253 494.686 147.097 494.686 143.474C494.686 139.792 494.19 136.621 493.199 133.962C492.236 131.303 490.818 129.257 488.95 127.826C487.111 126.394 484.894 125.678 482.295 125.678C479.639 125.678 477.391 126.408 475.552 127.869C473.713 129.33 472.313 131.39 471.35 134.05C470.415 136.709 469.947 139.85 469.947 143.474C469.947 147.097 470.43 150.253 471.393 152.941C472.357 155.63 473.744 157.719 475.552 159.209C477.391 160.67 479.639 161.401 482.295 161.401ZM529.155 177.137V109.811H550.565V177.137H529.155ZM539.882 101.965C536.877 101.965 534.293 100.971 532.132 98.9839C529.972 96.9676 528.893 94.5423 528.893 91.7078C528.893 88.9025 529.972 86.5064 532.132 84.5193C534.293 82.503 536.877 81.4949 539.882 81.4949C542.918 81.4949 545.502 82.503 547.632 84.5193C549.792 86.5064 550.874 88.9025 550.874 91.7078C550.874 94.5423 549.792 96.9676 547.632 98.9839C545.502 100.971 542.918 101.965 539.882 101.965ZM585.605 87.3684V177.137H564.195V87.3684H585.605ZM620.644 87.3684V177.137H599.232V87.3684H620.644ZM665.665 178.408C658.602 178.408 652.529 176.961 647.451 174.068C642.401 171.146 638.504 167.085 635.761 161.883C633.046 156.653 631.687 150.589 631.687 143.693C631.687 136.767 633.046 130.704 635.761 125.503C638.504 120.272 642.401 116.21 647.451 113.317C652.529 110.395 658.602 108.934 665.665 108.934C672.729 108.934 678.786 110.395 683.834 113.317C688.915 116.21 692.811 120.272 695.526 125.503C698.27 130.704 699.641 136.767 699.641 143.693C699.641 150.589 698.27 156.653 695.526 161.883C692.811 167.085 688.915 171.146 683.834 174.068C678.786 176.961 672.729 178.408 665.665 178.408ZM665.796 162.234C668.365 162.234 670.538 161.445 672.321 159.867C674.101 158.289 675.457 156.097 676.392 153.292C677.355 150.487 677.836 147.243 677.836 143.561C677.836 139.821 677.355 136.548 676.392 133.743C675.457 130.938 674.101 128.746 672.321 127.168C670.538 125.59 668.365 124.801 665.796 124.801C663.14 124.801 660.893 125.59 659.054 127.168C657.243 128.746 655.856 130.938 654.892 133.743C653.96 136.548 653.492 139.821 653.492 143.561C653.492 147.243 653.96 150.487 654.892 153.292C655.856 156.097 657.243 158.289 659.054 159.867C660.893 161.445 663.14 162.234 665.796 162.234Z" fill="url(#paint1_linear_133_18)"/>
<defs>
<linearGradient id="paint0_linear_133_18" x1="-3.44912" y1="86.0512" x2="221.497" y2="125.722" gradientUnits="userSpaceOnUse">
<stop stop-color="#415D66" stop-opacity="0.5"/>
<stop offset="0.5" stop-color="#415D66"/>
<stop offset="1" stop-color="#235666"/>
</linearGradient>
<linearGradient id="paint1_linear_133_18" x1="93.8494" y1="105.506" x2="587.859" y2="105.506" gradientUnits="userSpaceOnUse">
<stop stop-color="#92CAAD"/>
<stop offset="0.307292" stop-color="#93D2E6"/>
<stop offset="0.862525" stop-color="#EEBAA5"/>
<stop offset="0.947917" stop-color="#EEBAA5"/>
</linearGradient>
</defs>
</svg>
