<svg width="1920" height="882" style=" filter: opacity(40%);
-webkit-filter: opacity(40%);
-moz-filter: opacity(40%);" xmlns="http://www.w3.org/2000/svg" xmlns:xlink="http://www.w3.org/1999/xlink" viewBox="0 0 500 276.25"><defs><style>.cls-1{fill:#235666;}.cls-2{fill:#fff;}.cls-3{fill-opacity:0.75;}.cls-4{fill:none;stroke:#000;stroke-linecap:round;stroke-miterlimit:10;stroke-width:2.5px;stroke-dasharray:10 10;}.cls-5{fill:url(#linear-gradient);}.cls-6{fill:url(#linear-gradient-2);}.cls-7{fill:url(#linear-gradient-3);}</style><linearGradient id="linear-gradient" x1="509.09" y1="119.63" x2="548.54" y2="119.63" gradientTransform="matrix(1, 0, 0, -1, -56, 131)" gradientUnits="userSpaceOnUse"><stop offset="0" stop-color="#92caad"/><stop offset="0.31" stop-color="#93d2e6"/><stop offset="0.86" stop-color="#eebaa5"/><stop offset="0.95" stop-color="#eebaa5"/></linearGradient><linearGradient id="linear-gradient-2" x1="552.05" y1="88.53" x2="554.9" y2="88.53" xlink:href="#linear-gradient"/><linearGradient id="linear-gradient-3" x1="426.94" y1="81.91" x2="530.9" y2="81.91" xlink:href="#linear-gradient"/></defs><title>chat_background</title><g id="Layer_2" data-name="Layer 2"><g id="Layer_1-2" data-name="Layer 1"><path class="cls-1" d="M0,97a19.27,19.27,0,0,1,1.87-8.25c1.32-2.3,4-7,38.16-7v1.1c-33.43,0-36.18,4.62-37.17,6.48A17.29,17.29,0,0,0,1.1,97.14H0Z"/><path class="cls-1" d="M.44,105.27l1.1-.11c.44,3.4,1.1,6.81,1.87,10.22l-1.1.22C1.54,112.19.88,108.78.44,105.27Z"/><path class="cls-1" d="M12.87,135c4.5,8,14.29,10.44,23.42,8,8-2.2,51.24-9.67,55.2-11.1,8.24,2.52,17.59,12.3,17.59,12.3-1.21-9.88-8.36-50.87-24.3-55.49C73,85.38,9.68,82.63,5.17,90.54.44,98.89,8.36,127,12.87,135Z"/><path class="cls-2" d="M19.35,102.08A2.7,2.7,0,1,1,19,96.7c30.57-4.4,65.87-1.21,66.2-1.21a2.7,2.7,0,1,1-.55,5.38c-.33,0-35-3.08-65,1.21Z"/><path class="cls-2" d="M20.78,114a2.69,2.69,0,0,1,2.42-2.86A322.85,322.85,0,0,1,90,106.81a2.7,2.7,0,1,1-.33,5.38,312.48,312.48,0,0,0-65.54,4.28h-.44A2.85,2.85,0,0,1,20.78,114Z"/><path class="cls-2" d="M41.46,131.09a2.58,2.58,0,0,1-2.53-2,2.62,2.62,0,0,1,1.87-3.3,171.94,171.94,0,0,1,52.34-6.37,2.7,2.7,0,0,1-.33,5.39A166.27,166.27,0,0,0,42.34,131,3.1,3.1,0,0,1,41.46,131.09Z"/><path class="cls-3" d="M381.34,120c-.33.44-.55.44-1.1.33-4-1.32-7.8-2.64-11.76-4a.48.48,0,0,0-.55.11l-4.95,5c-.11.11-.22.22-.33.22a.58.58,0,0,1-.88-.44v-7.14c-.11,0-.22-.11-.33-.11-3.52-1.21-7.15-2.42-10.67-3.63a.81.81,0,0,1-.65-.66.69.69,0,0,1,.54-.66c9.9-5,19.91-10.11,29.81-15l.1-.11h.77Zm-1.21-23.4c-5.49,5.49-11.1,11-16.82,16.59l13.52,4.61v-6.26a.75.75,0,0,1,.56-.44.57.57,0,0,1,.55.44v6.7c.65.22,1.31.44,2.08.66C380.13,111.42,380.13,104,380.13,96.59Zm-27.82,12.85a.4.4,0,0,0,.33.11c3,1,6.05,2.09,9,3.08.22.11.33,0,.55-.11,5.28-5.39,10.67-10.66,16.05-16l.23-.22C369.8,100.65,361.11,105.05,352.31,109.44ZM363,119.55c1.32-1.21,2.53-2.53,3.85-3.84-1.21-.44-2.53-.88-3.85-1.32Z"/><path class="cls-3" d="M358.91,116.8a2.4,2.4,0,0,1-.33.55c-1.43,1.43-2.86,3-4.4,4.4a.71.71,0,0,1-1,.11.6.6,0,0,1,.11-.88l4.4-4.4c.22-.22.44-.33.66-.22S358.69,116.69,358.91,116.8Z"/><path class="cls-3" d="M371.45,119.88a2.4,2.4,0,0,1-.33.55l-4.29,4.29c-.33.33-.66.33-.88.11a.58.58,0,0,1,.11-.88l4.29-4.29c.22-.22.44-.33.66-.22S371.23,119.66,371.45,119.88Z"/><path class="cls-3" d="M352.2,123.51a.68.68,0,0,1-.65-.55.69.69,0,0,1,.54-.66.7.7,0,0,1,.66.55C352.75,123.29,352.53,123.51,352.2,123.51Z"/><path class="cls-3" d="M377.39,108.78a.6.6,0,0,1,.55.55.59.59,0,0,1-.55.55.55.55,0,1,1,0-1.1Z"/><path class="cls-4" d="M76.2,150.76a80.64,80.64,0,0,0,32,40.1c3.63,2.31,7.48,4.4,11.66,4.84s8.79-.88,11.43-4.29c4.07-5.38.77-14.17-5.5-16.59s-13.74.88-17.48,6.48-4.07,13-2.31,19.45c2.53,9.56,9.24,17.58,17.27,23.41s17.26,9.45,26.5,12.74a306.05,306.05,0,0,0,56.85,13.85c9.89,1.43,20.23,2.42,29.91-.44,12.09-3.63,21.88-13.19,27.37-24.61,9.13-19.23,5.5-44.07-9.34-59.23s-40.14-18.9-58.39-8c-16.71,9.89-25.84,30.55-24.19,50s13.19,37.47,28.81,48.89,35.19,16.92,54.65,17.58c36.18,1.32,73.34-14.5,95.12-43.62S377,160,359.13,128.23"/><path class="cls-5" d="M498.45,22.64a26.41,26.41,0,0,0-2.64-11.54c-1.54-2.64-5.49-9.56-55.09-9.56V0c50.59,0,54.65,7,56.52,10.44A26.5,26.5,0,0,1,500,22.75h-1.54Z"/><path class="cls-6" d="M496.69,50.22l-1.54-.33a136.61,136.61,0,0,0,2.75-15.17l1.54.22A143.38,143.38,0,0,1,496.69,50.22Z"/><path class="cls-7" d="M492.4,13.08c-6.7-11.76-100.61-7.7-118.09-2.64-23.54,6.81-34.2,67.58-36,82.3,0,0,13.85-14.5,26.06-18.24,5.83,2.09,69.94,13.19,81.81,16.37,13.64,3.63,28.15,0,34.75-11.87S499.44,25.38,492.4,13.08Z"/><path class="cls-2" d="M471.4,30.11h-.55c-44.42-6.38-95.88-1.87-96.43-1.76a4,4,0,1,1-.66-7.91c.55,0,52.89-4.62,98.19,1.87a4,4,0,0,1,3.74,4.28A3.88,3.88,0,0,1,471.4,30.11Z"/><path class="cls-2" d="M464.91,51.31h-.66a472.3,472.3,0,0,0-97.2-6.37,4,4,0,1,1-.44-7.91,475.51,475.51,0,0,1,99.07,6.37,4,4,0,0,1,3.63,4.29A4,4,0,0,1,464.91,51.31Z"/><path class="cls-2" d="M438.63,73.18a3.74,3.74,0,0,1-1.1-.11A249.56,249.56,0,0,0,362.65,64a4,4,0,1,1-.55-8,253,253,0,0,1,77.52,9.34,4.12,4.12,0,0,1,2.75,4.94A3.87,3.87,0,0,1,438.63,73.18Z"/></g></g></svg>