<svg width="1920" height="960"  style="filter: blur(37px);
  -webkit-filter: blur(37px);" fill="none" xmlns="http://www.w3.org/2000/svg">
<g filter="url(#filter0_d_326_2)">
<rect x="1277" y="90" width="483.155" height="771.374" rx="52" fill="url(#paint0_linear_326_2)" fill-opacity="0.23" shape-rendering="crispEdges"/>
</g>
<path d=" M1391.05 491.423V479.423H1392.35V480.809H1392.51C1392.6 480.657 1392.74 480.464 1392.91 480.229C1393.09 479.991 1393.35 479.779 1393.68 479.593C1394.01 479.404 1394.46 479.309 1395.03 479.309C1395.76 479.309 1396.41 479.493 1396.97 479.86C1397.53 480.228 1397.97 480.748 1398.28 481.423C1398.6 482.097 1398.76 482.892 1398.76 483.809C1398.76 484.733 1398.6 485.534 1398.28 486.212C1397.97 486.887 1397.53 487.409 1396.98 487.781C1396.42 488.148 1395.78 488.332 1395.05 488.332C1394.49 488.332 1394.04 488.239 1393.7 488.053C1393.37 487.864 1393.11 487.65 1392.93 487.411C1392.74 487.169 1392.6 486.968 1392.51 486.809H1392.39V491.423H1391.05ZM1392.37 483.786C1392.37 484.445 1392.47 485.027 1392.66 485.531C1392.85 486.031 1393.13 486.423 1393.51 486.707C1393.88 486.987 1394.33 487.127 1394.87 487.127C1395.43 487.127 1395.9 486.979 1396.27 486.684C1396.65 486.385 1396.94 485.983 1397.12 485.479C1397.32 484.972 1397.41 484.407 1397.41 483.786C1397.41 483.173 1397.32 482.62 1397.13 482.127C1396.95 481.631 1396.66 481.239 1396.28 480.951C1395.91 480.659 1395.44 480.514 1394.87 480.514C1394.32 480.514 1393.87 480.652 1393.49 480.928C1393.12 481.201 1392.84 481.584 1392.65 482.076C1392.46 482.565 1392.37 483.135 1392.37 483.786ZM1402.14 476.514V488.15H1400.8V476.514H1402.14ZM1408.26 488.332C1407.42 488.332 1406.69 488.146 1406.08 487.775C1405.47 487.4 1405.01 486.877 1404.68 486.207C1404.35 485.532 1404.19 484.748 1404.19 483.854C1404.19 482.961 1404.35 482.173 1404.68 481.491C1405.01 480.805 1405.47 480.271 1406.05 479.889C1406.64 479.502 1407.33 479.309 1408.12 479.309C1408.58 479.309 1409.02 479.385 1409.47 479.536C1409.91 479.688 1410.31 479.934 1410.68 480.275C1411.04 480.612 1411.33 481.059 1411.55 481.616C1411.76 482.173 1411.87 482.858 1411.87 483.673V484.241H1405.14V483.082H1410.51C1410.51 482.589 1410.41 482.15 1410.21 481.764C1410.02 481.377 1409.74 481.072 1409.38 480.849C1409.03 480.625 1408.61 480.514 1408.12 480.514C1407.59 480.514 1407.12 480.646 1406.73 480.911C1406.35 481.173 1406.05 481.514 1405.84 481.934C1405.63 482.354 1405.53 482.805 1405.53 483.286V484.059C1405.53 484.718 1405.64 485.277 1405.87 485.735C1406.1 486.19 1406.42 486.536 1406.83 486.775C1407.24 487.01 1407.72 487.127 1408.26 487.127C1408.61 487.127 1408.93 487.078 1409.21 486.979C1409.5 486.877 1409.75 486.726 1409.96 486.525C1410.16 486.32 1410.33 486.067 1410.44 485.764L1411.73 486.127C1411.6 486.567 1411.37 486.953 1411.05 487.286C1410.72 487.616 1410.33 487.873 1409.85 488.059C1409.38 488.241 1408.85 488.332 1408.26 488.332ZM1416.48 488.354C1415.93 488.354 1415.42 488.25 1414.97 488.042C1414.52 487.83 1414.16 487.525 1413.9 487.127C1413.63 486.726 1413.5 486.241 1413.5 485.673C1413.5 485.173 1413.6 484.767 1413.8 484.457C1413.99 484.142 1414.26 483.896 1414.59 483.718C1414.92 483.54 1415.28 483.407 1415.68 483.32C1416.08 483.229 1416.48 483.157 1416.89 483.104C1417.42 483.036 1417.85 482.985 1418.18 482.951C1418.51 482.913 1418.75 482.851 1418.9 482.764C1419.06 482.676 1419.14 482.525 1419.14 482.309V482.264C1419.14 481.703 1418.98 481.267 1418.68 480.957C1418.37 480.646 1417.91 480.491 1417.3 480.491C1416.66 480.491 1416.15 480.631 1415.79 480.911C1415.43 481.192 1415.17 481.491 1415.02 481.809L1413.75 481.354C1413.98 480.824 1414.28 480.411 1414.66 480.116C1415.04 479.817 1415.46 479.608 1415.91 479.491C1416.37 479.37 1416.81 479.309 1417.25 479.309C1417.53 479.309 1417.85 479.343 1418.22 479.411C1418.58 479.476 1418.94 479.61 1419.28 479.815C1419.62 480.019 1419.91 480.328 1420.14 480.741C1420.37 481.154 1420.48 481.707 1420.48 482.4V488.15H1419.14V486.968H1419.07C1418.98 487.157 1418.83 487.36 1418.62 487.576C1418.4 487.792 1418.12 487.976 1417.77 488.127C1417.42 488.279 1416.99 488.354 1416.48 488.354ZM1416.68 487.15C1417.21 487.15 1417.66 487.046 1418.02 486.837C1418.39 486.629 1418.67 486.36 1418.85 486.031C1419.04 485.701 1419.14 485.354 1419.14 484.991V483.764C1419.08 483.832 1418.96 483.894 1418.76 483.951C1418.57 484.004 1418.35 484.051 1418.1 484.093C1417.86 484.131 1417.62 484.165 1417.38 484.195C1417.15 484.222 1416.96 484.245 1416.82 484.264C1416.47 484.309 1416.15 484.383 1415.84 484.485C1415.54 484.584 1415.3 484.733 1415.12 484.934C1414.93 485.131 1414.84 485.4 1414.84 485.741C1414.84 486.207 1415.01 486.559 1415.36 486.798C1415.71 487.032 1416.15 487.15 1416.68 487.15ZM1429.11 481.377L1427.9 481.718C1427.83 481.517 1427.72 481.322 1427.57 481.133C1427.42 480.94 1427.23 480.781 1426.98 480.656C1426.73 480.531 1426.41 480.468 1426.02 480.468C1425.48 480.468 1425.04 480.591 1424.68 480.837C1424.33 481.08 1424.15 481.389 1424.15 481.764C1424.15 482.097 1424.27 482.36 1424.52 482.553C1424.76 482.746 1425.14 482.907 1425.65 483.036L1426.95 483.354C1427.73 483.544 1428.31 483.834 1428.69 484.224C1429.08 484.61 1429.27 485.108 1429.27 485.718C1429.27 486.218 1429.12 486.665 1428.84 487.059C1428.55 487.453 1428.15 487.764 1427.64 487.991C1427.13 488.218 1426.54 488.332 1425.86 488.332C1424.97 488.332 1424.23 488.139 1423.65 487.752C1423.06 487.366 1422.7 486.801 1422.54 486.059L1423.81 485.741C1423.93 486.211 1424.16 486.563 1424.5 486.798C1424.84 487.032 1425.29 487.15 1425.84 487.15C1426.46 487.15 1426.96 487.017 1427.32 486.752C1427.7 486.483 1427.88 486.161 1427.88 485.786C1427.88 485.483 1427.77 485.229 1427.56 485.025C1427.35 484.817 1427.02 484.661 1426.59 484.559L1425.13 484.218C1424.33 484.029 1423.74 483.735 1423.37 483.337C1423 482.936 1422.81 482.434 1422.81 481.832C1422.81 481.339 1422.95 480.904 1423.23 480.525C1423.51 480.146 1423.89 479.849 1424.37 479.633C1424.85 479.417 1425.4 479.309 1426.02 479.309C1426.88 479.309 1427.56 479.498 1428.05 479.877C1428.55 480.256 1428.9 480.756 1429.11 481.377ZM1434.94 488.332C1434.1 488.332 1433.38 488.146 1432.77 487.775C1432.16 487.4 1431.69 486.877 1431.37 486.207C1431.04 485.532 1430.88 484.748 1430.88 483.854C1430.88 482.961 1431.04 482.173 1431.37 481.491C1431.69 480.805 1432.15 480.271 1432.74 479.889C1433.33 479.502 1434.02 479.309 1434.81 479.309C1435.26 479.309 1435.71 479.385 1436.15 479.536C1436.6 479.688 1437 479.934 1437.37 480.275C1437.73 480.612 1438.02 481.059 1438.23 481.616C1438.45 482.173 1438.56 482.858 1438.56 483.673V484.241H1431.83V483.082H1437.19C1437.19 482.589 1437.1 482.15 1436.9 481.764C1436.71 481.377 1436.43 481.072 1436.07 480.849C1435.71 480.625 1435.29 480.514 1434.81 480.514C1434.27 480.514 1433.81 480.646 1433.42 480.911C1433.04 481.173 1432.74 481.514 1432.53 481.934C1432.32 482.354 1432.22 482.805 1432.22 483.286V484.059C1432.22 484.718 1432.33 485.277 1432.56 485.735C1432.79 486.19 1433.11 486.536 1433.52 486.775C1433.93 487.01 1434.4 487.127 1434.94 487.127C1435.3 487.127 1435.62 487.078 1435.9 486.979C1436.19 486.877 1436.44 486.726 1436.64 486.525C1436.85 486.32 1437.01 486.067 1437.13 485.764L1438.42 486.127C1438.29 486.567 1438.06 486.953 1437.73 487.286C1437.41 487.616 1437.01 487.873 1436.54 488.059C1436.07 488.241 1435.54 488.332 1434.94 488.332ZM1446.44 476.514V488.15H1445.1V476.514H1446.44ZM1452.44 488.332C1451.65 488.332 1450.96 488.144 1450.37 487.769C1449.78 487.394 1449.31 486.87 1448.98 486.195C1448.65 485.521 1448.49 484.733 1448.49 483.832C1448.49 482.923 1448.65 482.129 1448.98 481.451C1449.31 480.773 1449.78 480.246 1450.37 479.871C1450.96 479.496 1451.65 479.309 1452.44 479.309C1453.23 479.309 1453.92 479.496 1454.51 479.871C1455.1 480.246 1455.57 480.773 1455.89 481.451C1456.23 482.129 1456.39 482.923 1456.39 483.832C1456.39 484.733 1456.23 485.521 1455.89 486.195C1455.57 486.87 1455.1 487.394 1454.51 487.769C1453.92 488.144 1453.23 488.332 1452.44 488.332ZM1452.44 487.127C1453.04 487.127 1453.53 486.974 1453.92 486.667C1454.3 486.36 1454.59 485.957 1454.78 485.457C1454.96 484.957 1455.05 484.415 1455.05 483.832C1455.05 483.248 1454.96 482.705 1454.78 482.201C1454.59 481.697 1454.3 481.29 1453.92 480.979C1453.53 480.669 1453.04 480.514 1452.44 480.514C1451.84 480.514 1451.35 480.669 1450.96 480.979C1450.58 481.29 1450.29 481.697 1450.11 482.201C1449.92 482.705 1449.83 483.248 1449.83 483.832C1449.83 484.415 1449.92 484.957 1450.11 485.457C1450.29 485.957 1450.58 486.36 1450.96 486.667C1451.35 486.974 1451.84 487.127 1452.44 487.127ZM1461.96 491.604C1461.32 491.604 1460.76 491.521 1460.29 491.354C1459.83 491.192 1459.44 490.976 1459.13 490.707C1458.82 490.442 1458.58 490.157 1458.4 489.854L1459.46 489.104C1459.59 489.264 1459.74 489.445 1459.92 489.65C1460.11 489.858 1460.36 490.038 1460.69 490.19C1461.01 490.345 1461.44 490.423 1461.96 490.423C1462.67 490.423 1463.25 490.252 1463.71 489.911C1464.17 489.57 1464.4 489.036 1464.4 488.309V486.536H1464.28C1464.18 486.695 1464.04 486.892 1463.86 487.127C1463.68 487.358 1463.43 487.565 1463.09 487.746C1462.76 487.925 1462.31 488.014 1461.74 488.014C1461.03 488.014 1460.4 487.847 1459.84 487.514C1459.28 487.18 1458.84 486.695 1458.52 486.059C1458.19 485.423 1458.03 484.65 1458.03 483.741C1458.03 482.847 1458.19 482.068 1458.5 481.406C1458.82 480.739 1459.26 480.224 1459.82 479.86C1460.38 479.493 1461.03 479.309 1461.76 479.309C1462.33 479.309 1462.78 479.404 1463.11 479.593C1463.45 479.779 1463.71 479.991 1463.88 480.229C1464.07 480.464 1464.21 480.657 1464.31 480.809H1464.44V479.423H1465.74V488.4C1465.74 489.15 1465.57 489.76 1465.23 490.229C1464.89 490.703 1464.43 491.05 1463.86 491.269C1463.29 491.493 1462.66 491.604 1461.96 491.604ZM1461.92 486.809C1462.46 486.809 1462.91 486.686 1463.28 486.44C1463.65 486.193 1463.94 485.839 1464.13 485.377C1464.32 484.915 1464.42 484.362 1464.42 483.718C1464.42 483.089 1464.32 482.534 1464.13 482.053C1463.95 481.572 1463.67 481.195 1463.29 480.923C1462.92 480.65 1462.46 480.514 1461.92 480.514C1461.35 480.514 1460.88 480.657 1460.5 480.945C1460.12 481.233 1459.84 481.62 1459.65 482.104C1459.47 482.589 1459.37 483.127 1459.37 483.718C1459.37 484.324 1459.47 484.86 1459.66 485.326C1459.85 485.788 1460.13 486.152 1460.51 486.417C1460.89 486.678 1461.36 486.809 1461.92 486.809ZM1472.69 488.15V479.423H1474.03V488.15H1472.69ZM1473.37 477.968C1473.11 477.968 1472.89 477.879 1472.7 477.701C1472.51 477.523 1472.42 477.309 1472.42 477.059C1472.42 476.809 1472.51 476.595 1472.7 476.417C1472.89 476.239 1473.11 476.15 1473.37 476.15C1473.63 476.15 1473.86 476.239 1474.04 476.417C1474.23 476.595 1474.33 476.809 1474.33 477.059C1474.33 477.309 1474.23 477.523 1474.04 477.701C1473.86 477.879 1473.63 477.968 1473.37 477.968ZM1477.83 482.9V488.15H1476.49V479.423H1477.78V480.786H1477.9C1478.1 480.343 1478.41 479.987 1478.83 479.718C1479.25 479.445 1479.78 479.309 1480.44 479.309C1481.03 479.309 1481.55 479.43 1481.99 479.673C1482.44 479.911 1482.78 480.275 1483.03 480.764C1483.27 481.248 1483.4 481.862 1483.4 482.604V488.15H1482.06V482.695C1482.06 482.01 1481.88 481.476 1481.52 481.093C1481.17 480.707 1480.68 480.514 1480.06 480.514C1479.63 480.514 1479.25 480.606 1478.91 480.792C1478.58 480.978 1478.31 481.248 1478.12 481.604C1477.93 481.961 1477.83 482.392 1477.83 482.9ZM1494.14 479.423V480.559H1489.62V479.423H1494.14ZM1490.94 477.332H1492.28V485.65C1492.28 486.029 1492.33 486.313 1492.44 486.502C1492.56 486.688 1492.7 486.813 1492.88 486.877C1493.05 486.938 1493.24 486.968 1493.44 486.968C1493.59 486.968 1493.71 486.961 1493.8 486.945C1493.9 486.926 1493.97 486.911 1494.03 486.9L1494.3 488.104C1494.21 488.139 1494.08 488.173 1493.92 488.207C1493.76 488.245 1493.55 488.264 1493.3 488.264C1492.92 488.264 1492.55 488.182 1492.19 488.019C1491.83 487.856 1491.53 487.608 1491.29 487.275C1491.06 486.942 1490.94 486.521 1490.94 486.014V477.332ZM1499.61 488.332C1498.82 488.332 1498.13 488.144 1497.54 487.769C1496.95 487.394 1496.49 486.87 1496.15 486.195C1495.82 485.521 1495.66 484.733 1495.66 483.832C1495.66 482.923 1495.82 482.129 1496.15 481.451C1496.49 480.773 1496.95 480.246 1497.54 479.871C1498.13 479.496 1498.82 479.309 1499.61 479.309C1500.4 479.309 1501.09 479.496 1501.68 479.871C1502.28 480.246 1502.74 480.773 1503.07 481.451C1503.4 482.129 1503.57 482.923 1503.57 483.832C1503.57 484.733 1503.4 485.521 1503.07 486.195C1502.74 486.87 1502.28 487.394 1501.68 487.769C1501.09 488.144 1500.4 488.332 1499.61 488.332ZM1499.61 487.127C1500.21 487.127 1500.7 486.974 1501.09 486.667C1501.48 486.36 1501.76 485.957 1501.95 485.457C1502.13 484.957 1502.23 484.415 1502.23 483.832C1502.23 483.248 1502.13 482.705 1501.95 482.201C1501.76 481.697 1501.48 481.29 1501.09 480.979C1500.7 480.669 1500.21 480.514 1499.61 480.514C1499.01 480.514 1498.52 480.669 1498.13 480.979C1497.75 481.29 1497.46 481.697 1497.28 482.201C1497.09 482.705 1497 483.248 1497 483.832C1497 484.415 1497.09 484.957 1497.28 485.457C1497.46 485.957 1497.75 486.36 1498.13 486.667C1498.52 486.974 1499.01 487.127 1499.61 487.127ZM1510.11 488.15V479.423H1511.41V480.741H1511.5C1511.66 480.309 1511.95 479.959 1512.36 479.69C1512.78 479.421 1513.25 479.286 1513.77 479.286C1513.87 479.286 1513.99 479.288 1514.14 479.292C1514.29 479.296 1514.4 479.301 1514.48 479.309V480.673C1514.43 480.661 1514.33 480.644 1514.16 480.621C1514.01 480.595 1513.84 480.582 1513.66 480.582C1513.23 480.582 1512.86 480.671 1512.52 480.849C1512.19 481.023 1511.93 481.265 1511.74 481.576C1511.55 481.883 1511.45 482.233 1511.45 482.627V488.15H1510.11ZM1519.46 488.332C1518.62 488.332 1517.89 488.146 1517.28 487.775C1516.68 487.4 1516.21 486.877 1515.88 486.207C1515.55 485.532 1515.39 484.748 1515.39 483.854C1515.39 482.961 1515.55 482.173 1515.88 481.491C1516.21 480.805 1516.67 480.271 1517.26 479.889C1517.85 479.502 1518.54 479.309 1519.32 479.309C1519.78 479.309 1520.23 479.385 1520.67 479.536C1521.11 479.688 1521.52 479.934 1521.88 480.275C1522.24 480.612 1522.53 481.059 1522.75 481.616C1522.97 482.173 1523.07 482.858 1523.07 483.673V484.241H1516.35V483.082H1521.71C1521.71 482.589 1521.61 482.15 1521.41 481.764C1521.22 481.377 1520.95 481.072 1520.59 480.849C1520.23 480.625 1519.81 480.514 1519.32 480.514C1518.79 480.514 1518.33 480.646 1517.94 480.911C1517.55 481.173 1517.25 481.514 1517.05 481.934C1516.84 482.354 1516.73 482.805 1516.73 483.286V484.059C1516.73 484.718 1516.85 485.277 1517.07 485.735C1517.3 486.19 1517.62 486.536 1518.03 486.775C1518.44 487.01 1518.92 487.127 1519.46 487.127C1519.81 487.127 1520.13 487.078 1520.41 486.979C1520.7 486.877 1520.95 486.726 1521.16 486.525C1521.37 486.32 1521.53 486.067 1521.64 485.764L1522.94 486.127C1522.8 486.567 1522.57 486.953 1522.25 487.286C1521.93 487.616 1521.53 487.873 1521.06 488.059C1520.58 488.241 1520.05 488.332 1519.46 488.332ZM1531.98 479.423L1528.76 488.15H1527.39L1524.17 479.423H1525.62L1528.03 486.377H1528.12L1530.53 479.423H1531.98ZM1533.75 488.15V479.423H1535.1V488.15H1533.75ZM1534.44 477.968C1534.17 477.968 1533.95 477.879 1533.76 477.701C1533.57 477.523 1533.48 477.309 1533.48 477.059C1533.48 476.809 1533.57 476.595 1533.76 476.417C1533.95 476.239 1534.17 476.15 1534.44 476.15C1534.7 476.15 1534.92 476.239 1535.11 476.417C1535.3 476.595 1535.39 476.809 1535.39 477.059C1535.39 477.309 1535.3 477.523 1535.11 477.701C1534.92 477.879 1534.7 477.968 1534.44 477.968ZM1541.21 488.332C1540.37 488.332 1539.64 488.146 1539.03 487.775C1538.43 487.4 1537.96 486.877 1537.63 486.207C1537.3 485.532 1537.14 484.748 1537.14 483.854C1537.14 482.961 1537.3 482.173 1537.63 481.491C1537.96 480.805 1538.42 480.271 1539.01 479.889C1539.6 479.502 1540.29 479.309 1541.07 479.309C1541.53 479.309 1541.98 479.385 1542.42 479.536C1542.86 479.688 1543.27 479.934 1543.63 480.275C1543.99 480.612 1544.28 481.059 1544.5 481.616C1544.72 482.173 1544.82 482.858 1544.82 483.673V484.241H1538.1V483.082H1543.46C1543.46 482.589 1543.36 482.15 1543.16 481.764C1542.97 481.377 1542.7 481.072 1542.34 480.849C1541.98 480.625 1541.56 480.514 1541.07 480.514C1540.54 480.514 1540.08 480.646 1539.69 480.911C1539.3 481.173 1539 481.514 1538.8 481.934C1538.59 482.354 1538.48 482.805 1538.48 483.286V484.059C1538.48 484.718 1538.6 485.277 1538.82 485.735C1539.05 486.19 1539.37 486.536 1539.78 486.775C1540.19 487.01 1540.67 487.127 1541.21 487.127C1541.56 487.127 1541.88 487.078 1542.16 486.979C1542.45 486.877 1542.7 486.726 1542.91 486.525C1543.12 486.32 1543.28 486.067 1543.39 485.764L1544.69 486.127C1544.55 486.567 1544.32 486.953 1544 487.286C1543.68 487.616 1543.28 487.873 1542.81 488.059C1542.33 488.241 1541.8 488.332 1541.21 488.332ZM1548.84 488.15L1546.18 479.423H1547.59L1549.48 486.104H1549.57L1551.43 479.423H1552.86L1554.7 486.082H1554.8L1556.68 479.423H1558.09L1555.43 488.15H1554.11L1552.2 481.445H1552.07L1550.16 488.15H1548.84ZM1565.23 491.423C1565 491.423 1564.8 491.404 1564.62 491.366C1564.44 491.332 1564.32 491.298 1564.25 491.264L1564.59 490.082C1564.92 490.165 1565.2 490.195 1565.45 490.173C1565.7 490.15 1565.93 490.038 1566.12 489.837C1566.32 489.64 1566.5 489.32 1566.66 488.877L1566.91 488.195L1563.68 479.423H1565.14L1567.55 486.377H1567.64L1570.05 479.423H1571.5L1567.8 489.423C1567.63 489.873 1567.42 490.246 1567.18 490.542C1566.93 490.841 1566.64 491.063 1566.32 491.207C1566 491.351 1565.63 491.423 1565.23 491.423ZM1576.5 488.332C1575.71 488.332 1575.02 488.144 1574.43 487.769C1573.84 487.394 1573.38 486.87 1573.04 486.195C1572.71 485.521 1572.55 484.733 1572.55 483.832C1572.55 482.923 1572.71 482.129 1573.04 481.451C1573.38 480.773 1573.84 480.246 1574.43 479.871C1575.02 479.496 1575.71 479.309 1576.5 479.309C1577.29 479.309 1577.98 479.496 1578.57 479.871C1579.17 480.246 1579.63 480.773 1579.96 481.451C1580.29 482.129 1580.46 482.923 1580.46 483.832C1580.46 484.733 1580.29 485.521 1579.96 486.195C1579.63 486.87 1579.17 487.394 1578.57 487.769C1577.98 488.144 1577.29 488.332 1576.5 488.332ZM1576.5 487.127C1577.1 487.127 1577.59 486.974 1577.98 486.667C1578.37 486.36 1578.65 485.957 1578.84 485.457C1579.02 484.957 1579.12 484.415 1579.12 483.832C1579.12 483.248 1579.02 482.705 1578.84 482.201C1578.65 481.697 1578.37 481.29 1577.98 480.979C1577.59 480.669 1577.1 480.514 1576.5 480.514C1575.9 480.514 1575.41 480.669 1575.03 480.979C1574.64 481.29 1574.35 481.697 1574.17 482.201C1573.98 482.705 1573.89 483.248 1573.89 483.832C1573.89 484.415 1573.98 484.957 1574.17 485.457C1574.35 485.957 1574.64 486.36 1575.03 486.667C1575.41 486.974 1575.9 487.127 1576.5 487.127ZM1588 484.582V479.423H1589.35V488.15H1588V486.673H1587.91C1587.71 487.116 1587.39 487.493 1586.96 487.803C1586.53 488.11 1585.98 488.264 1585.32 488.264C1584.78 488.264 1584.29 488.144 1583.87 487.906C1583.44 487.663 1583.11 487.3 1582.87 486.815C1582.63 486.326 1582.5 485.711 1582.5 484.968V479.423H1583.85V484.877C1583.85 485.514 1584.02 486.021 1584.38 486.4C1584.74 486.779 1585.2 486.968 1585.75 486.968C1586.09 486.968 1586.43 486.883 1586.77 486.712C1587.12 486.542 1587.41 486.281 1587.65 485.928C1587.88 485.576 1588 485.127 1588 484.582ZM1591.8 488.15V479.423H1593.1V480.741H1593.19C1593.35 480.309 1593.63 479.959 1594.05 479.69C1594.47 479.421 1594.94 479.286 1595.46 479.286C1595.56 479.286 1595.68 479.288 1595.83 479.292C1595.98 479.296 1596.09 479.301 1596.16 479.309V480.673C1596.12 480.661 1596.02 480.644 1595.85 480.621C1595.69 480.595 1595.52 480.582 1595.35 480.582C1594.92 480.582 1594.54 480.671 1594.21 480.849C1593.88 481.023 1593.62 481.265 1593.43 481.576C1593.24 481.883 1593.14 482.233 1593.14 482.627V488.15H1591.8ZM1603.6 482.9V488.15H1602.25V476.514H1603.6V480.786H1603.71C1603.91 480.336 1604.22 479.978 1604.63 479.712C1605.04 479.443 1605.59 479.309 1606.28 479.309C1606.87 479.309 1607.39 479.428 1607.84 479.667C1608.29 479.902 1608.63 480.264 1608.88 480.752C1609.13 481.237 1609.25 481.854 1609.25 482.604V488.15H1607.91V482.695C1607.91 482.002 1607.73 481.466 1607.37 481.087C1607.02 480.705 1606.52 480.514 1605.89 480.514C1605.45 480.514 1605.06 480.606 1604.71 480.792C1604.36 480.978 1604.09 481.248 1603.89 481.604C1603.69 481.961 1603.6 482.392 1603.6 482.9ZM1611.71 488.15V479.423H1613.05V488.15H1611.71ZM1612.39 477.968C1612.13 477.968 1611.9 477.879 1611.71 477.701C1611.53 477.523 1611.43 477.309 1611.43 477.059C1611.43 476.809 1611.53 476.595 1611.71 476.417C1611.9 476.239 1612.13 476.15 1612.39 476.15C1612.65 476.15 1612.87 476.239 1613.06 476.417C1613.25 476.595 1613.34 476.809 1613.34 477.059C1613.34 477.309 1613.25 477.523 1613.06 477.701C1612.87 477.879 1612.65 477.968 1612.39 477.968ZM1621.69 481.377L1620.48 481.718C1620.41 481.517 1620.29 481.322 1620.15 481.133C1620 480.94 1619.81 480.781 1619.56 480.656C1619.31 480.531 1618.99 480.468 1618.6 480.468C1618.06 480.468 1617.62 480.591 1617.26 480.837C1616.91 481.08 1616.73 481.389 1616.73 481.764C1616.73 482.097 1616.85 482.36 1617.1 482.553C1617.34 482.746 1617.72 482.907 1618.23 483.036L1619.53 483.354C1620.31 483.544 1620.89 483.834 1621.27 484.224C1621.65 484.61 1621.85 485.108 1621.85 485.718C1621.85 486.218 1621.7 486.665 1621.41 487.059C1621.13 487.453 1620.73 487.764 1620.22 487.991C1619.71 488.218 1619.11 488.332 1618.44 488.332C1617.55 488.332 1616.81 488.139 1616.23 487.752C1615.64 487.366 1615.27 486.801 1615.12 486.059L1616.39 485.741C1616.51 486.211 1616.74 486.563 1617.08 486.798C1617.42 487.032 1617.86 487.15 1618.41 487.15C1619.04 487.15 1619.53 487.017 1619.9 486.752C1620.27 486.483 1620.46 486.161 1620.46 485.786C1620.46 485.483 1620.35 485.229 1620.14 485.025C1619.93 484.817 1619.6 484.661 1619.16 484.559L1617.71 484.218C1616.91 484.029 1616.32 483.735 1615.95 483.337C1615.58 482.936 1615.39 482.434 1615.39 481.832C1615.39 481.339 1615.53 480.904 1615.81 480.525C1616.09 480.146 1616.47 479.849 1616.95 479.633C1617.43 479.417 1617.98 479.309 1618.6 479.309C1619.46 479.309 1620.14 479.498 1620.63 479.877C1621.13 480.256 1621.48 480.756 1621.69 481.377ZM1627.66 479.423V480.559H1623.14V479.423H1627.66ZM1624.45 477.332H1625.8V485.65C1625.8 486.029 1625.85 486.313 1625.96 486.502C1626.07 486.688 1626.22 486.813 1626.39 486.877C1626.57 486.938 1626.76 486.968 1626.95 486.968C1627.1 486.968 1627.22 486.961 1627.32 486.945C1627.41 486.926 1627.49 486.911 1627.55 486.9L1627.82 488.104C1627.73 488.139 1627.6 488.173 1627.44 488.207C1627.27 488.245 1627.07 488.264 1626.82 488.264C1626.44 488.264 1626.07 488.182 1625.7 488.019C1625.34 487.856 1625.05 487.608 1624.81 487.275C1624.57 486.942 1624.45 486.521 1624.45 486.014V477.332ZM1633.13 488.332C1632.34 488.332 1631.65 488.144 1631.05 487.769C1630.46 487.394 1630 486.87 1629.67 486.195C1629.34 485.521 1629.17 484.733 1629.17 483.832C1629.17 482.923 1629.34 482.129 1629.67 481.451C1630 480.773 1630.46 480.246 1631.05 479.871C1631.65 479.496 1632.34 479.309 1633.13 479.309C1633.92 479.309 1634.61 479.496 1635.2 479.871C1635.79 480.246 1636.25 480.773 1636.58 481.451C1636.92 482.129 1637.08 482.923 1637.08 483.832C1637.08 484.733 1636.92 485.521 1636.58 486.195C1636.25 486.87 1635.79 487.394 1635.2 487.769C1634.61 488.144 1633.92 488.332 1633.13 488.332ZM1633.13 487.127C1633.73 487.127 1634.22 486.974 1634.61 486.667C1634.99 486.36 1635.28 485.957 1635.46 485.457C1635.65 484.957 1635.74 484.415 1635.74 483.832C1635.74 483.248 1635.65 482.705 1635.46 482.201C1635.28 481.697 1634.99 481.29 1634.61 480.979C1634.22 480.669 1633.73 480.514 1633.13 480.514C1632.53 480.514 1632.04 480.669 1631.65 480.979C1631.26 481.29 1630.98 481.697 1630.79 482.201C1630.61 482.705 1630.51 483.248 1630.51 483.832C1630.51 484.415 1630.61 484.957 1630.79 485.457C1630.98 485.957 1631.26 486.36 1631.65 486.667C1632.04 486.974 1632.53 487.127 1633.13 487.127ZM1639.13 488.15V479.423H1640.42V480.741H1640.52C1640.67 480.309 1640.96 479.959 1641.38 479.69C1641.8 479.421 1642.27 479.286 1642.79 479.286C1642.89 479.286 1643.01 479.288 1643.16 479.292C1643.31 479.296 1643.42 479.301 1643.49 479.309V480.673C1643.45 480.661 1643.34 480.644 1643.18 480.621C1643.02 480.595 1642.85 480.582 1642.67 480.582C1642.25 480.582 1641.87 480.671 1641.54 480.849C1641.21 481.023 1640.95 481.265 1640.75 481.576C1640.56 481.883 1640.47 482.233 1640.47 482.627V488.15H1639.13ZM1646.21 491.423C1645.98 491.423 1645.78 491.404 1645.6 491.366C1645.43 491.332 1645.3 491.298 1645.23 491.264L1645.58 490.082C1645.9 490.165 1646.19 490.195 1646.44 490.173C1646.69 490.15 1646.91 490.038 1647.1 489.837C1647.3 489.64 1647.48 489.32 1647.64 488.877L1647.89 488.195L1644.67 479.423H1646.12L1648.53 486.377H1648.62L1651.03 479.423H1652.48L1648.78 489.423C1648.61 489.873 1648.41 490.246 1648.16 490.542C1647.91 490.841 1647.63 491.063 1647.3 491.207C1646.98 491.351 1646.62 491.423 1646.21 491.423Z" fill="black "/>
<path d="M1333.21 197.633H1703.99" stroke="url(#paint1_linear_326_2)"/>
<path d="M1416.45 158.149V183.229H1413.25V163.469L1406.09 178.229H1403.17L1396.01 163.429V183.229H1392.81V158.149H1397.09L1404.69 174.109L1412.33 158.149H1416.45ZM1423.78 186.749C1424.79 186.749 1425.55 186.523 1426.06 186.069C1426.59 185.643 1427.15 184.603 1427.74 182.949L1419.66 163.469H1423.34L1429.42 179.669L1435.18 163.469H1438.7L1430.62 184.549C1429.9 186.469 1429.06 187.803 1428.1 188.549C1427.14 189.323 1425.9 189.709 1424.38 189.709C1423.93 189.709 1423.45 189.683 1422.94 189.629C1422.46 189.576 1421.98 189.509 1421.5 189.429V186.549C1421.79 186.629 1422.11 186.683 1422.46 186.709C1422.83 186.736 1423.27 186.749 1423.78 186.749ZM1452.32 183.549C1450.29 183.549 1448.8 183.069 1447.84 182.109C1446.91 181.123 1446.44 179.576 1446.44 177.469C1446.44 175.336 1447.01 173.829 1448.16 172.949C1449.31 172.043 1451.25 171.589 1454 171.589C1454.91 171.589 1455.8 171.629 1456.68 171.709C1457.56 171.789 1458.39 171.909 1459.16 172.069V170.149C1459.16 168.683 1458.79 167.629 1458.04 166.989C1457.29 166.349 1456.09 166.029 1454.44 166.029C1453.21 166.029 1452.13 166.083 1451.2 166.189C1450.27 166.269 1449.33 166.416 1448.4 166.629V163.789C1449.47 163.523 1450.55 163.336 1451.64 163.229C1452.76 163.123 1454.03 163.069 1455.44 163.069C1457.81 163.069 1459.57 163.629 1460.72 164.749C1461.87 165.843 1462.44 167.549 1462.44 169.869V183.229H1459.44L1459.28 181.389H1459.2C1458.4 182.029 1457.36 182.549 1456.08 182.949C1454.83 183.349 1453.57 183.549 1452.32 183.549ZM1454.36 174.269C1452.55 174.269 1451.28 174.496 1450.56 174.949C1449.87 175.376 1449.52 176.149 1449.52 177.269C1449.52 178.443 1449.81 179.296 1450.4 179.829C1450.99 180.336 1451.95 180.589 1453.28 180.589C1454.32 180.589 1455.39 180.429 1456.48 180.109C1457.57 179.789 1458.47 179.389 1459.16 178.909V174.669C1458.28 174.536 1457.45 174.443 1456.68 174.389C1455.93 174.309 1455.16 174.269 1454.36 174.269ZM1470.85 189.309H1467.57V163.469H1470.41L1470.61 165.229H1470.73C1471.55 164.536 1472.54 164.003 1473.69 163.629C1474.83 163.256 1476.06 163.069 1477.37 163.069C1480.06 163.069 1481.98 163.869 1483.13 165.469C1484.3 167.069 1484.89 169.683 1484.89 173.309C1484.89 176.936 1484.18 179.549 1482.77 181.149C1481.35 182.749 1478.99 183.549 1475.69 183.549C1474.7 183.549 1473.79 183.483 1472.97 183.349C1472.17 183.216 1471.46 183.016 1470.85 182.749V189.309ZM1481.61 173.309C1481.61 170.589 1481.22 168.696 1480.45 167.629C1479.7 166.563 1478.29 166.029 1476.21 166.029C1475.22 166.029 1474.27 166.176 1473.37 166.469C1472.49 166.736 1471.65 167.136 1470.85 167.669V179.709C1471.51 179.976 1472.19 180.176 1472.89 180.309C1473.61 180.443 1474.41 180.509 1475.29 180.509C1477.77 180.509 1479.43 180.003 1480.29 178.989C1481.17 177.949 1481.61 176.056 1481.61 173.309ZM1492.49 189.309H1489.21V163.469H1492.05L1492.25 165.229H1492.37C1493.19 164.536 1494.18 164.003 1495.33 163.629C1496.47 163.256 1497.7 163.069 1499.01 163.069C1501.7 163.069 1503.62 163.869 1504.77 165.469C1505.94 167.069 1506.53 169.683 1506.53 173.309C1506.53 176.936 1505.82 179.549 1504.41 181.149C1502.99 182.749 1500.63 183.549 1497.33 183.549C1496.34 183.549 1495.43 183.483 1494.61 183.349C1493.81 183.216 1493.1 183.016 1492.49 182.749V189.309ZM1503.25 173.309C1503.25 170.589 1502.86 168.696 1502.09 167.629C1501.34 166.563 1499.93 166.029 1497.85 166.029C1496.86 166.029 1495.91 166.176 1495.01 166.469C1494.13 166.736 1493.29 167.136 1492.49 167.669V179.709C1493.15 179.976 1493.83 180.176 1494.53 180.309C1495.25 180.443 1496.05 180.509 1496.93 180.509C1499.41 180.509 1501.07 180.003 1501.93 178.989C1502.81 177.949 1503.25 176.056 1503.25 173.309ZM1514.13 156.629V183.229H1510.85V156.629H1514.13ZM1522.8 160.029H1519.28V156.629H1522.8V160.029ZM1522.68 183.229H1519.4V163.469H1522.68V183.229ZM1541.76 179.309V182.069C1541.09 182.496 1540.09 182.856 1538.76 183.149C1537.45 183.416 1536.08 183.549 1534.64 183.549C1531.84 183.549 1529.86 182.789 1528.72 181.269C1527.6 179.749 1527.04 177.096 1527.04 173.309C1527.04 169.603 1527.77 166.976 1529.24 165.429C1530.7 163.856 1533.2 163.069 1536.72 163.069C1537.49 163.069 1538.18 163.096 1538.8 163.149C1539.44 163.176 1540.25 163.256 1541.24 163.389V166.309C1540.25 166.176 1539.44 166.096 1538.8 166.069C1538.18 166.043 1537.49 166.029 1536.72 166.029C1534.21 166.029 1532.52 166.549 1531.64 167.589C1530.76 168.603 1530.32 170.509 1530.32 173.309C1530.32 176.109 1530.66 178.016 1531.36 179.029C1532.05 180.016 1533.38 180.509 1535.36 180.509C1536.45 180.509 1537.58 180.403 1538.76 180.189C1539.93 179.949 1540.93 179.656 1541.76 179.309ZM1550.01 183.549C1547.99 183.549 1546.49 183.069 1545.53 182.109C1544.6 181.123 1544.13 179.576 1544.13 177.469C1544.13 175.336 1544.71 173.829 1545.85 172.949C1547 172.043 1548.95 171.589 1551.69 171.589C1552.6 171.589 1553.49 171.629 1554.37 171.709C1555.25 171.789 1556.08 171.909 1556.85 172.069V170.149C1556.85 168.683 1556.48 167.629 1555.73 166.989C1554.99 166.349 1553.79 166.029 1552.13 166.029C1550.91 166.029 1549.83 166.083 1548.89 166.189C1547.96 166.269 1547.03 166.416 1546.09 166.629V163.789C1547.16 163.523 1548.24 163.336 1549.33 163.229C1550.45 163.123 1551.72 163.069 1553.13 163.069C1555.51 163.069 1557.27 163.629 1558.41 164.749C1559.56 165.843 1560.13 167.549 1560.13 169.869V183.229H1557.13L1556.97 181.389H1556.89C1556.09 182.029 1555.05 182.549 1553.77 182.949C1552.52 183.349 1551.27 183.549 1550.01 183.549ZM1552.05 174.269C1550.24 174.269 1548.97 174.496 1548.25 174.949C1547.56 175.376 1547.21 176.149 1547.21 177.269C1547.21 178.443 1547.51 179.296 1548.09 179.829C1548.68 180.336 1549.64 180.589 1550.97 180.589C1552.01 180.589 1553.08 180.429 1554.17 180.109C1555.27 179.789 1556.16 179.389 1556.85 178.909V174.669C1555.97 174.536 1555.15 174.443 1554.37 174.389C1553.63 174.309 1552.85 174.269 1552.05 174.269ZM1576.63 180.149V182.909C1576.2 183.096 1575.61 183.243 1574.87 183.349C1574.15 183.483 1573.45 183.549 1572.79 183.549C1570.39 183.549 1568.67 183.016 1567.63 181.949C1566.61 180.883 1566.11 179.043 1566.11 176.429V166.269H1563.15V163.469H1566.15L1566.67 158.669H1569.39V163.469H1576.43V166.269H1569.39V176.309C1569.39 177.936 1569.68 179.043 1570.27 179.629C1570.88 180.216 1571.95 180.509 1573.47 180.509C1573.95 180.509 1574.49 180.469 1575.11 180.389C1575.75 180.309 1576.25 180.229 1576.63 180.149ZM1583.27 160.029H1579.75V156.629H1583.27V160.029ZM1583.15 183.229H1579.87V163.469H1583.15V183.229ZM1605.78 173.309C1605.78 177.043 1605.09 179.683 1603.7 181.229C1602.34 182.776 1600 183.549 1596.66 183.549C1593.22 183.549 1590.84 182.803 1589.5 181.309C1588.17 179.816 1587.5 177.149 1587.5 173.309C1587.5 169.549 1588.18 166.909 1589.54 165.389C1590.93 163.843 1593.3 163.069 1596.66 163.069C1600.1 163.069 1602.48 163.816 1603.78 165.309C1605.12 166.803 1605.78 169.469 1605.78 173.309ZM1590.78 173.269C1590.78 176.203 1591.17 178.149 1591.94 179.109C1592.72 180.043 1594.29 180.509 1596.66 180.509C1598.96 180.509 1600.5 180.016 1601.3 179.029C1602.1 178.016 1602.5 176.096 1602.5 173.269C1602.5 170.336 1602.12 168.403 1601.34 167.469C1600.6 166.509 1599.04 166.029 1596.66 166.029C1594.34 166.029 1592.78 166.523 1591.98 167.509C1591.18 168.496 1590.78 170.416 1590.78 173.269ZM1613.42 183.229H1610.14V163.469H1612.98L1613.14 165.389H1613.26C1614.33 164.589 1615.44 164.003 1616.58 163.629C1617.76 163.256 1619.06 163.069 1620.5 163.069C1622.69 163.069 1624.34 163.616 1625.46 164.709C1626.61 165.803 1627.18 167.416 1627.18 169.549V183.229H1623.9V169.949C1623.9 168.616 1623.53 167.629 1622.78 166.989C1622.04 166.349 1620.89 166.029 1619.34 166.029C1618.38 166.029 1617.4 166.189 1616.38 166.509C1615.4 166.803 1614.41 167.243 1613.42 167.829V183.229ZM1639.09 166.029C1637.39 166.029 1636.2 166.229 1635.53 166.629C1634.89 167.029 1634.57 167.843 1634.57 169.069C1634.57 169.709 1634.72 170.203 1635.01 170.549C1635.33 170.869 1635.83 171.083 1636.49 171.189L1641.57 171.949C1643.17 172.189 1644.29 172.696 1644.93 173.469C1645.57 174.216 1645.89 175.403 1645.89 177.029C1645.89 179.323 1645.35 180.989 1644.25 182.029C1643.16 183.043 1641.35 183.549 1638.81 183.549C1637.29 183.549 1635.88 183.469 1634.57 183.309C1633.27 183.149 1632.19 182.936 1631.33 182.669V179.589C1632.19 179.856 1633.23 180.083 1634.45 180.269C1635.71 180.429 1636.99 180.509 1638.29 180.509C1639.95 180.509 1641.08 180.269 1641.69 179.789C1642.31 179.309 1642.61 178.456 1642.61 177.229C1642.61 176.456 1642.44 175.896 1642.09 175.549C1641.75 175.176 1641.12 174.923 1640.21 174.789L1635.13 174.029C1633.85 173.843 1632.89 173.349 1632.25 172.549C1631.64 171.749 1631.32 170.589 1631.29 169.069C1631.29 166.989 1631.91 165.469 1633.13 164.509C1634.39 163.549 1636.31 163.069 1638.89 163.069C1639.96 163.069 1640.92 163.096 1641.77 163.149C1642.65 163.203 1643.57 163.309 1644.53 163.469V166.389C1643.84 166.283 1643.03 166.203 1642.09 166.149C1641.16 166.069 1640.16 166.029 1639.09 166.029Z" fill="black"/>
<path d="M38.9999 475.135V501.545C39.5884 503.166 40.0704 504.819 40.4431 506.497C42.7442 523.524 48.6594 539.932 57.8312 554.727C86.5738 599.706 128.827 622.732 184.225 622.848C307.322 623.09 430.424 623.09 553.532 622.848C573.667 622.848 593.82 623.409 613.921 622.551C656.191 620.735 691.367 604.064 717.849 572.917C783.785 495.339 743.253 381.728 641.342 357.612C637.099 356.605 635.047 355.136 634.23 350.482C624.806 296.672 568.781 261.531 513.73 275.033C506.775 276.683 504.393 274.818 501.35 269.321C464.835 203.446 407.211 167.892 328.825 164.244C289.175 162.247 249.918 172.554 216.985 193.608C154.996 232.612 124.132 287.808 124.828 358.553C124.828 362.927 123.732 365.156 119.611 367.07C79.3287 386.074 53.7392 416.335 42.8427 457.853C41.2256 463.565 40.2345 469.391 38.9999 475.135Z" fill="url(#paint2_linear_326_2)"/>
<path d="M144 460.416V492.367C144.712 494.328 145.295 496.329 145.746 498.358C148.53 518.958 155.686 538.808 166.782 556.708C201.556 611.124 252.674 638.982 319.696 639.121C468.62 639.414 617.551 639.414 766.489 639.121C790.849 639.121 815.23 639.8 839.548 638.762C890.688 636.565 933.244 616.396 965.283 578.714C1045.05 484.859 996.017 347.41 872.722 318.235C867.59 317.017 865.107 315.24 864.119 309.608C852.717 244.509 784.937 201.994 718.336 218.329C709.922 220.326 707.04 218.069 703.358 211.42C659.182 131.722 589.467 88.7083 494.635 84.2951C446.666 81.879 399.172 94.3488 359.329 119.82C284.334 167.008 246.994 233.785 247.836 319.373C247.836 324.665 246.51 327.361 241.525 329.678C192.79 352.669 161.832 389.279 148.649 439.508C146.693 446.418 145.494 453.467 144 460.416Z" fill="url(#paint3_linear_326_2)"/>
<g clip-path="url(#clip0_326_2)">
<path d="M711.527 622.911C713.462 622.806 714.962 621.701 715.865 619.656C719.335 611.8 722.829 603.954 726.347 596.117C728.794 590.609 731.185 585.084 733.717 579.612C734.118 578.785 734.783 578.115 735.608 577.708C748.804 571.794 762.017 565.915 775.246 560.073C776.984 559.299 778.338 558.25 778.79 556.282C779.358 553.798 777.907 551.508 775.113 550.528C767.63 547.899 760.145 545.279 752.657 542.668L679.734 517.157C676.364 515.98 673.372 517.335 672.824 520.492C672.622 521.65 672.921 522.997 673.32 524.122C682.472 550.388 691.653 576.644 700.864 602.888C702.77 608.336 704.661 613.777 706.584 619.237C707.419 621.612 709.088 622.89 711.527 622.911Z" fill="black"/>
<path d="M682.294 492.409C682.294 489.34 682.294 486.271 682.294 483.206C682.294 480.141 680.238 478 677.432 478C674.694 478.02 672.65 480.174 672.642 483.13C672.624 489.369 672.624 495.607 672.642 501.841C672.642 504.801 674.686 506.955 677.428 506.975C680.169 506.995 682.266 504.813 682.29 501.765C682.306 498.647 682.294 495.53 682.294 492.409Z" fill="black"/>
<path d="M648.509 526.303C651.626 526.303 654.746 526.303 657.863 526.303C660.806 526.283 662.963 524.227 662.971 521.493C662.979 518.758 660.842 516.653 657.895 516.653C651.606 516.629 645.318 516.629 639.031 516.653C636.116 516.653 633.968 518.791 634 521.533C634.032 524.275 636.157 526.271 639.003 526.299C642.172 526.324 645.341 526.299 648.509 526.303Z" fill="black"/>
<path d="M645.986 495.49C646.296 496.074 646.671 497.393 647.514 498.268C651.441 502.357 655.476 506.354 659.524 510.33C661.56 512.346 664.495 512.294 666.402 510.358C666.853 509.917 667.212 509.389 667.455 508.807C667.699 508.224 667.823 507.598 667.821 506.967C667.818 506.335 667.689 505.711 667.44 505.13C667.191 504.55 666.829 504.025 666.373 503.587C662.342 499.466 658.259 495.384 654.126 491.34C652.662 489.9 650.836 489.63 648.961 490.425C647.086 491.219 646.123 492.731 645.986 495.49Z" fill="black"/>
<path d="M703.367 490.058C702.698 490.425 701.388 490.828 700.501 491.671C696.514 495.502 692.623 499.442 688.737 503.366C686.672 505.463 686.681 508.459 688.668 510.374C690.656 512.29 693.506 512.193 695.566 510.165C699.496 506.275 703.407 502.361 707.302 498.426C708.83 496.881 709.229 495.034 708.374 493.018C707.552 491.126 705.988 490.271 703.367 490.058Z" fill="black"/>
<path d="M662.696 530.909C661.62 531.49 660.35 531.869 659.499 532.683C655.468 536.555 651.549 540.523 647.63 544.499C645.615 546.515 645.643 549.491 647.558 551.399C649.473 553.306 652.416 553.302 654.456 551.29C658.426 547.365 662.373 543.417 666.297 539.446C667.016 538.764 667.499 537.871 667.678 536.896C667.857 535.922 667.722 534.915 667.292 534.022C666.518 532.292 664.724 531.151 662.696 530.909Z" fill="black"/>
</g>
<path d="M280.184 303.944C283.384 303.944 286.2 303.08 288.632 301.352C291.128 299.624 292.376 297.032 292.376 293.576C292.376 290.056 291.032 287.368 288.344 285.512C285.72 283.656 281.944 282.056 277.016 280.712C272.152 279.304 268.6 278.088 266.36 277.064C264.184 276.04 262.104 274.696 260.12 273.032C256.152 269.704 254.168 264.552 254.168 257.576C254.168 251.88 256.184 246.984 260.216 242.888C264.312 238.792 269.88 236.744 276.92 236.744C280.312 236.744 283.832 237.256 287.48 238.28C291.192 239.24 293.496 239.72 294.392 239.72C295.288 239.72 296.088 239.08 296.792 237.8H297.848L298.52 257.192H296.984C293.912 251.624 290.68 247.176 287.288 243.848C283.96 240.456 280.312 238.76 276.344 238.76C272.44 238.76 269.4 239.688 267.224 241.544C265.048 243.336 263.96 245.768 263.96 248.84C263.96 251.848 265.24 254.184 267.8 255.848C270.424 257.448 273.624 258.76 277.4 259.784C281.176 260.808 283.64 261.512 284.792 261.896C286.008 262.28 287.48 262.824 289.208 263.528C291 264.168 292.44 264.872 293.528 265.64C294.68 266.344 295.864 267.272 297.08 268.424C298.36 269.512 299.352 270.728 300.056 272.072C301.784 275.144 302.648 278.792 302.648 283.016C302.648 289.928 300.472 295.496 296.12 299.72C291.832 303.88 286.168 305.96 279.128 305.96C275.48 305.96 271.288 305.48 266.552 304.52C261.88 303.56 259.288 303.08 258.776 303.08C257.88 303.08 257.016 304.04 256.184 305.96H254.84L253.88 283.112H255.512C258.328 288.68 261.912 293.544 266.264 297.704C270.68 301.864 275.32 303.944 280.184 303.944ZM312.307 291.272V261.032H307.027V259.304H312.307V246.92L330.163 242.504V259.304H342.643V261.032H330.163V293.384C330.163 296.392 330.451 298.6 331.027 300.008C331.667 301.416 332.947 302.12 334.867 302.12C336.787 302.12 338.451 301.16 339.859 299.24C341.331 297.32 342.291 294.696 342.739 291.368L344.371 291.56C343.859 295.976 342.451 299.496 340.147 302.12C337.843 304.68 334.035 305.96 328.723 305.96C323.411 305.96 319.347 304.904 316.531 302.792C313.715 300.68 312.307 296.84 312.307 291.272ZM368.328 282.44H371.112V275.048C371.112 268.968 370.76 264.904 370.056 262.856C369.416 260.744 368.136 259.688 366.216 259.688C365.064 259.688 364.008 260.008 363.048 260.648C362.152 261.224 361.704 262.056 361.704 263.144C361.704 264.168 361.896 265.224 362.28 266.312H364.68C365.192 267.656 365.448 269.288 365.448 271.208C365.448 273.064 364.648 274.696 363.048 276.104C361.448 277.448 359.432 278.12 357 278.12C351.496 278.12 348.744 275.464 348.744 270.152C348.744 262.28 355.432 258.344 368.808 258.344C376.424 258.344 381.672 259.656 384.552 262.28C387.496 264.84 388.968 269.576 388.968 276.488V295.976C388.968 299.304 389.896 300.968 391.752 300.968C393.928 300.968 395.208 297.672 395.592 291.08L397.032 291.176C396.776 296.808 395.72 300.68 393.864 302.792C392.008 304.904 388.968 305.96 384.744 305.96C377.064 305.96 372.648 303.592 371.496 298.856C370.664 301.288 369.416 303.08 367.752 304.232C366.088 305.384 363.656 305.96 360.456 305.96C350.984 305.96 346.248 302.088 346.248 294.344C346.248 289.8 348.04 286.696 351.624 285.032C355.272 283.304 360.84 282.44 368.328 282.44ZM364.488 294.248C364.488 297.576 364.648 299.72 364.968 300.68C365.352 301.64 366.024 302.12 366.984 302.12C368.008 302.12 368.936 301.32 369.768 299.72C370.664 298.056 371.112 295.784 371.112 292.904V283.976H370.44C366.472 283.976 364.488 286.888 364.488 292.712V294.248ZM430.04 261.992C427.672 261.992 425.592 263.528 423.8 266.6C422.008 269.672 421.112 273.32 421.112 277.544V303.272H427.928V305H397.976V303.272H403.256V261.032H397.976V259.304H421.112V268.52C421.944 265.256 423.544 262.76 425.912 261.032C428.28 259.24 430.968 258.344 433.976 258.344C436.984 258.344 439.416 259.208 441.272 260.936C443.192 262.6 444.152 265 444.152 268.136C444.152 271.208 443.448 273.576 442.04 275.24C440.632 276.904 438.456 277.736 435.512 277.736C432.632 277.736 430.488 276.776 429.08 274.856C427.736 272.936 427.576 270.28 428.6 266.888H432.056C433.656 263.624 432.984 261.992 430.04 261.992ZM450.307 291.272V261.032H445.027V259.304H450.307V246.92L468.163 242.504V259.304H480.643V261.032H468.163V293.384C468.163 296.392 468.451 298.6 469.027 300.008C469.667 301.416 470.947 302.12 472.867 302.12C474.787 302.12 476.451 301.16 477.859 299.24C479.331 297.32 480.291 294.696 480.739 291.368L482.371 291.56C481.859 295.976 480.451 299.496 478.147 302.12C475.843 304.68 472.035 305.96 466.723 305.96C461.411 305.96 457.347 304.904 454.531 302.792C451.715 300.68 450.307 296.84 450.307 291.272ZM500.058 261.032V259.304H527.898V261.032H522.714L533.178 292.904L544.314 261.032H537.882V259.304H551.418V261.032H546.618L528.666 312.776C526.554 318.792 524.186 322.984 521.562 325.352C518.938 327.784 515.738 329 511.962 329C508.186 329 505.21 328.136 503.034 326.408C500.858 324.68 499.77 322.472 499.77 319.784C499.77 317.096 500.474 315.048 501.882 313.64C503.29 312.232 505.146 311.528 507.45 311.528C512.762 311.528 515.418 313.736 515.418 318.152C515.418 319.112 515.226 320.264 514.842 321.608H511.482C510.97 323.08 510.906 324.296 511.29 325.256C511.674 326.216 512.538 326.696 513.882 326.696C516.506 326.696 518.842 325.384 520.89 322.76C522.938 320.2 524.89 316.264 526.746 310.952L528.858 305H520.41L503.994 261.032H500.058ZM580.202 286.088V277.928C580.202 271.72 579.85 267.208 579.146 264.392C578.506 261.512 576.97 260.072 574.538 260.072C573.13 260.072 571.978 260.488 571.082 261.32C570.25 262.088 569.642 263.4 569.258 265.256C568.682 268.136 568.394 272.52 568.394 278.408V285.896C568.394 292.872 568.586 297.064 568.97 298.472C569.418 299.88 569.866 301.032 570.314 301.928C571.018 303.464 572.394 304.232 574.442 304.232C576.938 304.232 578.57 302.792 579.338 299.912C579.914 297.864 580.202 293.256 580.202 286.088ZM574.25 305.96C566.25 305.96 560.202 303.912 556.106 299.816C552.01 295.72 549.962 289.864 549.962 282.248C549.962 274.568 552.138 268.68 556.49 264.584C560.906 260.424 567.082 258.344 575.018 258.344C582.954 258.344 588.874 260.264 592.778 264.104C596.682 267.88 598.634 273.672 598.634 281.48C598.634 297.8 590.506 305.96 574.25 305.96ZM657.479 305H635.591L634.535 297.992C633.511 300.552 631.975 302.536 629.927 303.944C627.943 305.288 624.967 305.96 620.999 305.96C611.079 305.96 606.119 300.616 606.119 289.928V261.032H600.743V259.304H623.975V292.232C623.975 296.072 624.231 298.6 624.743 299.816C625.319 301.032 626.407 301.64 628.007 301.64C629.671 301.64 631.143 300.648 632.423 298.664C633.703 296.68 634.343 293.928 634.343 290.408V261.032H629.927V259.304H652.199V303.272H657.479V305ZM691.508 261.992C689.14 261.992 687.06 263.528 685.268 266.6C683.476 269.672 682.58 273.32 682.58 277.544V303.272H689.396V305H659.444V303.272H664.724V261.032H659.444V259.304H682.58V268.52C683.412 265.256 685.012 262.76 687.38 261.032C689.748 259.24 692.436 258.344 695.444 258.344C698.452 258.344 700.884 259.208 702.74 260.936C704.66 262.6 705.62 265 705.62 268.136C705.62 271.208 704.916 273.576 703.508 275.24C702.1 276.904 699.924 277.736 696.98 277.736C694.1 277.736 691.956 276.776 690.548 274.856C689.204 272.936 689.044 270.28 690.068 266.888H693.524C695.124 263.624 694.452 261.992 691.508 261.992ZM211.668 390.072C208.852 390.072 206.836 391.608 205.62 394.68C204.404 397.752 203.796 402.84 203.796 409.944V414.936C203.796 421.272 204.5 425.816 205.908 428.568C207.316 431.32 209.908 432.696 213.684 432.696C217.46 432.696 220.468 431.416 222.708 428.856C224.948 426.296 226.388 423.384 227.028 420.12L228.756 420.312C227.54 425.816 225.3 429.784 222.036 432.216C218.708 434.712 214.132 435.96 208.308 435.96C200.884 435.96 195.188 433.976 191.22 430.008C187.252 425.976 185.268 420.12 185.268 412.44C185.268 404.696 187.508 398.744 191.988 394.584C196.532 390.424 202.836 388.344 210.9 388.344C216.596 388.344 220.948 389.464 223.956 391.704C226.964 393.88 228.468 396.632 228.468 399.96C228.468 403.288 227.732 405.72 226.26 407.256C224.852 408.792 222.868 409.56 220.308 409.56C217.812 409.56 215.796 408.888 214.26 407.544C212.724 406.2 211.956 404.216 211.956 401.592C211.956 400.44 212.116 399.288 212.436 398.136H215.604C216.052 396.856 216.276 395.704 216.276 394.68C216.276 391.608 214.74 390.072 211.668 390.072ZM254.234 412.44H257.018V405.048C257.018 398.968 256.666 394.904 255.962 392.856C255.322 390.744 254.042 389.688 252.122 389.688C250.97 389.688 249.914 390.008 248.954 390.648C248.058 391.224 247.61 392.056 247.61 393.144C247.61 394.168 247.802 395.224 248.186 396.312H250.586C251.098 397.656 251.354 399.288 251.354 401.208C251.354 403.064 250.554 404.696 248.954 406.104C247.354 407.448 245.338 408.12 242.906 408.12C237.402 408.12 234.65 405.464 234.65 400.152C234.65 392.28 241.338 388.344 254.714 388.344C262.33 388.344 267.578 389.656 270.458 392.28C273.402 394.84 274.874 399.576 274.874 406.488V425.976C274.874 429.304 275.802 430.968 277.658 430.968C279.834 430.968 281.114 427.672 281.498 421.08L282.938 421.176C282.682 426.808 281.626 430.68 279.77 432.792C277.914 434.904 274.874 435.96 270.65 435.96C262.97 435.96 258.554 433.592 257.402 428.856C256.57 431.288 255.322 433.08 253.658 434.232C251.994 435.384 249.562 435.96 246.362 435.96C236.89 435.96 232.154 432.088 232.154 424.344C232.154 419.8 233.946 416.696 237.53 415.032C241.178 413.304 246.746 412.44 254.234 412.44ZM250.394 424.248C250.394 427.576 250.554 429.72 250.874 430.68C251.258 431.64 251.93 432.12 252.89 432.12C253.914 432.12 254.842 431.32 255.674 429.72C256.57 428.056 257.018 425.784 257.018 422.904V413.976H256.346C252.378 413.976 250.394 416.888 250.394 422.712V424.248ZM315.946 391.992C313.578 391.992 311.498 393.528 309.706 396.6C307.914 399.672 307.018 403.32 307.018 407.544V433.272H313.834V435H283.882V433.272H289.162V391.032H283.882V389.304H307.018V398.52C307.85 395.256 309.45 392.76 311.818 391.032C314.186 389.24 316.874 388.344 319.882 388.344C322.89 388.344 325.322 389.208 327.178 390.936C329.098 392.6 330.058 395 330.058 398.136C330.058 401.208 329.354 403.576 327.946 405.24C326.538 406.904 324.362 407.736 321.418 407.736C318.538 407.736 316.394 406.776 314.986 404.856C313.642 402.936 313.482 400.28 314.506 396.888H317.962C319.562 393.624 318.89 391.992 315.946 391.992ZM356.192 435.96C347.936 435.96 341.728 433.848 337.568 429.624C333.472 425.336 331.424 419.416 331.424 411.864C331.424 404.248 333.728 398.424 338.336 394.392C343.008 390.36 348.928 388.344 356.096 388.344C370.624 388.344 377.6 395.64 377.024 410.232H349.952V413.976C349.952 420.248 350.752 424.984 352.352 428.184C353.952 431.384 356.736 432.984 360.704 432.984C368.128 432.984 372.992 429.016 375.296 421.08L377.024 421.368C375.808 425.976 373.6 429.56 370.4 432.12C367.264 434.68 362.528 435.96 356.192 435.96ZM350.048 408.312H359.936V403.608C359.936 398.424 359.616 394.904 358.976 393.048C358.4 391.128 357.184 390.168 355.328 390.168C353.536 390.168 352.192 391.192 351.296 393.24C350.464 395.224 350.048 398.68 350.048 403.608V408.312ZM405.692 435.96C397.436 435.96 391.228 433.848 387.068 429.624C382.972 425.336 380.924 419.416 380.924 411.864C380.924 404.248 383.228 398.424 387.836 394.392C392.508 390.36 398.428 388.344 405.596 388.344C420.124 388.344 427.1 395.64 426.524 410.232H399.452V413.976C399.452 420.248 400.252 424.984 401.852 428.184C403.452 431.384 406.236 432.984 410.204 432.984C417.628 432.984 422.492 429.016 424.796 421.08L426.524 421.368C425.308 425.976 423.1 429.56 419.9 432.12C416.764 434.68 412.028 435.96 405.692 435.96ZM399.548 408.312H409.436V403.608C409.436 398.424 409.116 394.904 408.476 393.048C407.9 391.128 406.684 390.168 404.828 390.168C403.036 390.168 401.692 391.192 400.796 393.24C399.964 395.224 399.548 398.68 399.548 403.608V408.312ZM462.008 391.992C459.64 391.992 457.56 393.528 455.768 396.6C453.976 399.672 453.08 403.32 453.08 407.544V433.272H459.896V435H429.944V433.272H435.224V391.032H429.944V389.304H453.08V398.52C453.912 395.256 455.512 392.76 457.88 391.032C460.248 389.24 462.936 388.344 465.944 388.344C468.952 388.344 471.384 389.208 473.24 390.936C475.16 392.6 476.12 395 476.12 398.136C476.12 401.208 475.416 403.576 474.008 405.24C472.6 406.904 470.424 407.736 467.48 407.736C464.6 407.736 462.456 406.776 461.048 404.856C459.704 402.936 459.544 400.28 460.568 396.888H464.024C465.624 393.624 464.952 391.992 462.008 391.992ZM527.558 391.032V389.304H552.326V391.032H548.39L557.03 423.384L565.574 391.032H558.95V389.304H571.91V391.032H567.878L556.358 435H543.206L534.854 405.528L525.83 435H512.966L498.758 391.032H494.438V389.304H523.526V391.032H517.766L526.598 423.672L533.51 401.208L531.11 391.032H527.558ZM588.9 382.68C585.508 382.68 583.076 381.816 581.604 380.088C580.196 378.36 579.492 376.216 579.492 373.656C579.492 371.096 580.26 368.984 581.796 367.32C583.396 365.656 585.796 364.824 588.996 364.824C592.196 364.824 594.628 365.592 596.292 367.128C597.956 368.6 598.788 370.744 598.788 373.56C598.788 376.312 597.988 378.52 596.388 380.184C594.788 381.848 592.292 382.68 588.9 382.68ZM574.404 389.304H597.924V433.272H603.3V435H574.788V433.272H580.068V391.032H574.404V389.304ZM610.057 421.272V391.032H604.777V389.304H610.057V376.92L627.913 372.504V389.304H640.393V391.032H627.913V423.384C627.913 426.392 628.201 428.6 628.777 430.008C629.417 431.416 630.697 432.12 632.617 432.12C634.537 432.12 636.201 431.16 637.609 429.24C639.081 427.32 640.041 424.696 640.489 421.368L642.121 421.56C641.609 425.976 640.201 429.496 637.897 432.12C635.593 434.68 631.785 435.96 626.473 435.96C621.161 435.96 617.097 434.904 614.281 432.792C611.465 430.68 610.057 426.84 610.057 421.272ZM643.038 363H666.174V398.136C667.198 395.192 668.766 392.824 670.878 391.032C672.99 389.24 676.19 388.344 680.478 388.344C690.398 388.344 695.358 393.688 695.358 404.376V433.272H700.734V435H673.566V433.272H677.502V402.072C677.502 398.232 677.246 395.768 676.734 394.68C676.222 393.528 675.294 392.952 673.95 392.952C671.902 392.952 670.078 394.296 668.478 396.984C666.942 399.672 666.174 402.936 666.174 406.776V433.272H670.302V435H643.038V433.272H648.318V364.728H643.038V363ZM742.484 412.44H745.268V405.048C745.268 398.968 744.916 394.904 744.212 392.856C743.572 390.744 742.292 389.688 740.372 389.688C739.22 389.688 738.164 390.008 737.204 390.648C736.308 391.224 735.86 392.056 735.86 393.144C735.86 394.168 736.052 395.224 736.436 396.312H738.836C739.348 397.656 739.604 399.288 739.604 401.208C739.604 403.064 738.804 404.696 737.204 406.104C735.604 407.448 733.588 408.12 731.156 408.12C725.652 408.12 722.9 405.464 722.9 400.152C722.9 392.28 729.588 388.344 742.964 388.344C750.58 388.344 755.828 389.656 758.708 392.28C761.652 394.84 763.124 399.576 763.124 406.488V425.976C763.124 429.304 764.052 430.968 765.908 430.968C768.084 430.968 769.364 427.672 769.748 421.08L771.188 421.176C770.932 426.808 769.876 430.68 768.02 432.792C766.164 434.904 763.124 435.96 758.9 435.96C751.22 435.96 746.804 433.592 745.652 428.856C744.82 431.288 743.572 433.08 741.908 434.232C740.244 435.384 737.812 435.96 734.612 435.96C725.14 435.96 720.404 432.088 720.404 424.344C720.404 419.8 722.196 416.696 725.78 415.032C729.428 413.304 734.996 412.44 742.484 412.44ZM738.644 424.248C738.644 427.576 738.804 429.72 739.124 430.68C739.508 431.64 740.18 432.12 741.14 432.12C742.164 432.12 743.092 431.32 743.924 429.72C744.82 428.056 745.268 425.784 745.268 422.904V413.976H744.596C740.628 413.976 738.644 416.888 738.644 422.712V424.248ZM399.684 520.072C396.868 520.072 394.852 521.608 393.636 524.68C392.42 527.752 391.812 532.84 391.812 539.944V544.936C391.812 551.272 392.516 555.816 393.924 558.568C395.332 561.32 397.924 562.696 401.7 562.696C405.476 562.696 408.484 561.416 410.724 558.856C412.964 556.296 414.404 553.384 415.044 550.12L416.772 550.312C415.556 555.816 413.316 559.784 410.052 562.216C406.724 564.712 402.148 565.96 396.324 565.96C388.9 565.96 383.204 563.976 379.236 560.008C375.268 555.976 373.284 550.12 373.284 542.44C373.284 534.696 375.524 528.744 380.004 524.584C384.548 520.424 390.852 518.344 398.916 518.344C404.612 518.344 408.964 519.464 411.972 521.704C414.98 523.88 416.484 526.632 416.484 529.96C416.484 533.288 415.748 535.72 414.276 537.256C412.868 538.792 410.884 539.56 408.324 539.56C405.828 539.56 403.812 538.888 402.276 537.544C400.74 536.2 399.972 534.216 399.972 531.592C399.972 530.44 400.132 529.288 400.452 528.136H403.62C404.068 526.856 404.292 525.704 404.292 524.68C404.292 521.608 402.756 520.072 399.684 520.072ZM417.889 493H441.409V563.272H446.785V565H418.273V563.272H423.553V494.728H417.889V493ZM462.76 512.68C459.368 512.68 456.936 511.816 455.464 510.088C454.056 508.36 453.352 506.216 453.352 503.656C453.352 501.096 454.12 498.984 455.656 497.32C457.256 495.656 459.656 494.824 462.856 494.824C466.056 494.824 468.488 495.592 470.152 497.128C471.816 498.6 472.648 500.744 472.648 503.56C472.648 506.312 471.848 508.52 470.248 510.184C468.648 511.848 466.152 512.68 462.76 512.68ZM448.264 519.304H471.784V563.272H477.16V565H448.648V563.272H453.928V521.032H448.264V519.304ZM505.996 520.072C503.18 520.072 501.164 521.608 499.948 524.68C498.732 527.752 498.124 532.84 498.124 539.944V544.936C498.124 551.272 498.828 555.816 500.236 558.568C501.644 561.32 504.236 562.696 508.012 562.696C511.788 562.696 514.796 561.416 517.036 558.856C519.276 556.296 520.716 553.384 521.356 550.12L523.084 550.312C521.868 555.816 519.628 559.784 516.364 562.216C513.036 564.712 508.46 565.96 502.636 565.96C495.212 565.96 489.516 563.976 485.548 560.008C481.58 555.976 479.596 550.12 479.596 542.44C479.596 534.696 481.836 528.744 486.316 524.584C490.86 520.424 497.164 518.344 505.228 518.344C510.924 518.344 515.276 519.464 518.284 521.704C521.292 523.88 522.796 526.632 522.796 529.96C522.796 533.288 522.06 535.72 520.588 537.256C519.18 538.792 517.196 539.56 514.636 539.56C512.14 539.56 510.124 538.888 508.588 537.544C507.052 536.2 506.284 534.216 506.284 531.592C506.284 530.44 506.444 529.288 506.764 528.136H509.932C510.38 526.856 510.604 525.704 510.604 524.68C510.604 521.608 509.068 520.072 505.996 520.072ZM555.977 565V563.272H560.393L549.545 541L547.721 541.48V563.272H552.137V565H524.585V563.272H529.865V494.728H524.201V493H547.721V539.56L549.257 538.984L570.857 521.032H561.833V519.304H580.745V521.032H574.025L562.601 530.728L579.209 563.272H582.665V565H555.977Z" fill="black"/>
<g filter="url(#filter1_b_326_2)">
<rect width="1920" height="964" fill="white" fill-opacity="0.35"/>
</g>
<defs>
<filter id="filter0_d_326_2" x="1269.5" y="82.5" width="513.155" height="801.374" filterUnits="userSpaceOnUse" color-interpolation-filters="sRGB">
<feFlood flood-opacity="0" result="BackgroundImageFix"/>
<feColorMatrix in="SourceAlpha" type="matrix" values="0 0 0 0 0 0 0 0 0 0 0 0 0 0 0 0 0 0 127 0" result="hardAlpha"/>
<feOffset dx="7.5" dy="7.5"/>
<feGaussianBlur stdDeviation="7.5"/>
<feComposite in2="hardAlpha" operator="out"/>
<feColorMatrix type="matrix" values="0 0 0 0 1 0 0 0 0 0.972549 0 0 0 0 0.960784 0 0 0 1 0"/>
<feBlend mode="normal" in2="BackgroundImageFix" result="effect1_dropShadow_326_2"/>
<feBlend mode="normal" in="SourceGraphic" in2="effect1_dropShadow_326_2" result="shape"/>
</filter>
<filter id="filter1_b_326_2" x="-85" y="-85" width="2090" height="1134" filterUnits="userSpaceOnUse" color-interpolation-filters="sRGB">
<feFlood flood-opacity="0" result="BackgroundImageFix"/>
<feGaussianBlur in="BackgroundImage" stdDeviation="42.5"/>
<feComposite in2="SourceAlpha" operator="in" result="effect1_backgroundBlur_326_2"/>
<feBlend mode="normal" in="SourceGraphic" in2="effect1_backgroundBlur_326_2" result="shape"/>
</filter>
<linearGradient id="paint0_linear_326_2" x1="1277" y1="90" x2="1759.34" y2="861.881" gradientUnits="userSpaceOnUse">
<stop stop-color="#95D5B3"/>
<stop offset="1" stop-color="#7EC1D6"/>
</linearGradient>
<linearGradient id="paint1_linear_326_2" x1="1410.57" y1="198.133" x2="1657.31" y2="198.132" gradientUnits="userSpaceOnUse">
<stop stop-color="#92CAAD"/>
<stop offset="0.307292" stop-color="#93D2E6"/>
<stop offset="0.862525" stop-color="#EEBAA5"/>
<stop offset="0.947917" stop-color="#EEBAA5"/>
</linearGradient>
<linearGradient id="paint2_linear_326_2" x1="206" y1="194.029" x2="630" y2="614.029" gradientUnits="userSpaceOnUse">
<stop stop-color="#DBF3FB"/>
<stop offset="0.0001" stop-color="#DEF7FF"/>
<stop offset="0.505208" stop-color="#FEEAE1"/>
<stop offset="1" stop-color="#E4F4F1"/>
<stop offset="1" stop-color="#CEF8F0"/>
</linearGradient>
<linearGradient id="paint3_linear_326_2" x1="574.069" y1="84" x2="574.069" y2="639.341" gradientUnits="userSpaceOnUse">
<stop offset="0.213542" stop-color="#A3E4F8"/>
<stop offset="0.869792" stop-color="#A7DCC0"/>
</linearGradient>
<clipPath id="clip0_326_2">
<rect width="144.911" height="144.911" fill="white" transform="matrix(-1 0 0 1 778.911 478)"/>
</clipPath>
</defs>
</svg>
